<svg xmlns="http://www.w3.org/2000/svg" xmlns:xlink="http://www.w3.org/1999/xlink" width="1320" height="226.97"><rect width="1320" height="211.97" rx="5" ry="5" class="a"/><svg y="0%" x="0%"><circle cx="20" cy="20" r="6" fill="#ff5f58"/><circle cx="40" cy="20" r="6" fill="#ffbd2e"/><circle cx="60" cy="20" r="6" fill="#18c132"/></svg><svg height="151.97" viewBox="0 0 128 15.197" width="1280" x="15" xmlns="http://www.w3.org/2000/svg" xmlns:xlink="http://www.w3.org/1999/xlink" y="50"><style>@keyframes i{0%{transform:translateX(0)}2%{transform:translateX(-128px)}23.2%{transform:translateX(-256px)}27.9%{transform:translateX(-384px)}29.2%{transform:translateX(-512px)}32%{transform:translateX(-640px)}38.7%{transform:translateX(-768px)}46.2%{transform:translateX(-896px)}48.2%{transform:translateX(-1024px)}53.2%{transform:translateX(-1152px)}58.3%{transform:translateX(-1280px)}59.4%{transform:translateX(-1408px)}63.1%{transform:translateX(-1536px)}65.1%{transform:translateX(-1664px)}67%{transform:translateX(-1792px)}68.9%{transform:translateX(-1920px)}78.1%{transform:translateX(-2304px)}to{transform:translateX(-2432px)}}.a{fill:#282d35}.f{fill:#b9c0cb;white-space:pre}</style><g font-family="Monaco,Consolas,Menlo,'Bitstream Vera Sans Mono','Powerline Symbols',monospace" font-size="1.67"><defs><symbol id="1"><text y="1.67" class="f">[mepcott@csci-odin</text><text x="19.038" y="1.67" class="f">~]$</text></symbol><symbol id="2"><text y="1.67" class="f">[mepcott@csci-odin</text><text x="19.038" y="1.67" class="f">~]$</text><text x="23.046" y="1.67" class="f">bash</text></symbol><symbol id="3"><text y="1.67" class="f">[mepcott@csci-odin</text><text x="19.038" y="1.67" class="f">~]$</text><text x="23.046" y="1.67" class="f">bash</text><text x="28.056" y="1.67" class="f">--version</text></symbol><symbol id="4"><text y="1.67" class="f">GNU</text><text x="4.008" y="1.67" class="f">bash,</text><text x="10.02" y="1.67" class="f">version</text><text x="18.036" y="1.67" class="f">4.2.46(2)-release</text><text x="36.072" y="1.67" class="f">(x86_64-redhat-linux-gnu)</text></symbol><symbol id="5"><text y="1.67" class="f">Copyright</text><text x="10.02" y="1.67" class="f">(C)</text><text x="14.028" y="1.67" class="f">2011</text><text x="19.038" y="1.67" class="f">Free</text><text x="24.048" y="1.67" class="f">Software</text><text x="33.066" y="1.67" class="f">Foundation,</text><text x="45.09" y="1.67" class="f">Inc.</text></symbol><symbol id="6"><text y="1.67" class="f">License</text><text x="8.016" y="1.67" class="f">GPLv3+:</text><text x="16.032" y="1.67" class="f">GNU</text><text x="20.04" y="1.67" class="f">GPL</text><text x="24.048" y="1.67" class="f">version</text><text x="32.064" y="1.67" class="f">3</text><text x="34.068" y="1.67" class="f">or</text><text x="37.074" y="1.67" class="f">later</text><text x="43.086" y="1.67" class="f">&lt;http://gnu.org/licenses/gpl.html&gt;</text></symbol><symbol id="7"><text y="1.67" class="f">This</text><text x="5.01" y="1.67" class="f">is</text><text x="8.016" y="1.67" class="f">free</text><text x="13.026" y="1.67" class="f">software;</text><text x="23.046" y="1.67" class="f">you</text><text x="27.054" y="1.67" class="f">are</text><text x="31.062" y="1.67" class="f">free</text><text x="36.072" y="1.67" class="f">to</text><text x="39.078" y="1.67" class="f">change</text><text x="46.092" y="1.67" class="f">and</text><text x="50.1" y="1.67" class="f">redistribute</text><text x="63.126" y="1.67" class="f">it.</text></symbol><symbol id="8"><text y="1.67" class="f">There</text><text x="6.012" y="1.67" class="f">is</text><text x="9.018" y="1.67" class="f">NO</text><text x="12.024" y="1.67" class="f">WARRANTY,</text><text x="22.044" y="1.67" class="f">to</text><text x="25.05" y="1.67" class="f">the</text><text x="29.058" y="1.67" class="f">extent</text><text x="36.072" y="1.67" class="f">permitted</text><text x="46.092" y="1.67" class="f">by</text><text x="49.098" y="1.67" class="f">law.</text></symbol><symbol id="a"><path fill="transparent" d="M0 0h128v7H0z"/></symbol><symbol id="b"><path fill="#6f7683" d="M0 0h1.102v2.171H0z"/></symbol></defs><path class="a" d="M0 0h128v15.197H0z"/><g style="animation-duration:7.285568s;animation-iteration-count:infinite;animation-name:i;animation-timing-function:steps(1,end)"><svg width="2560"><svg><use xlink:href="#a"/><use xlink:href="#b" x="-.004"/></svg><svg x="128"><use xlink:href="#a"/><use xlink:href="#b" x="22.996"/><use xlink:href="#1"/></svg><svg x="256"><use xlink:href="#a"/><use xlink:href="#b" x="23.996"/><text y="1.67" class="f">[mepcott@csci-odin</text><text x="19.038" y="1.67" class="f">~]$</text><text x="23.046" y="1.67" class="f">b</text></svg><svg x="384"><use xlink:href="#a"/><use xlink:href="#b" x="24.996"/><text y="1.67" class="f">[mepcott@csci-odin</text><text x="19.038" y="1.67" class="f">~]$</text><text x="23.046" y="1.67" class="f">ba</text></svg><svg x="512"><use xlink:href="#a"/><use xlink:href="#b" x="25.996"/><text y="1.67" class="f">[mepcott@csci-odin</text><text x="19.038" y="1.67" class="f">~]$</text><text x="23.046" y="1.67" class="f">bas</text></svg><svg x="640"><use xlink:href="#a"/><use xlink:href="#b" x="26.996"/><use xlink:href="#2"/></svg><svg x="768"><use xlink:href="#a"/><use xlink:href="#b" x="27.996"/><use xlink:href="#2"/></svg><svg x="896"><use xlink:href="#a"/><use xlink:href="#b" x="28.996"/><text y="1.67" class="f">[mepcott@csci-odin</text><text x="19.038" y="1.67" class="f">~]$</text><text x="23.046" y="1.67" class="f">bash</text><text x="28.056" y="1.67" class="f">-</text></svg><svg x="1024"><use xlink:href="#a"/><use xlink:href="#b" x="29.996"/><text y="1.67" class="f">[mepcott@csci-odin</text><text x="19.038" y="1.67" class="f">~]$</text><text x="23.046" y="1.67" class="f">bash</text><text x="28.056" y="1.67" class="f">--</text></svg><svg x="1152"><use xlink:href="#a"/><use xlink:href="#b" x="30.996"/><text y="1.67" class="f">[mepcott@csci-odin</text><text x="19.038" y="1.67" class="f">~]$</text><text x="23.046" y="1.67" class="f">bash</text><text x="28.056" y="1.67" class="f">--v</text></svg><svg x="1280"><use xlink:href="#a"/><use xlink:href="#b" x="31.996"/><text y="1.67" class="f">[mepcott@csci-odin</text><text x="19.038" y="1.67" class="f">~]$</text><text x="23.046" y="1.67" class="f">bash</text><text x="28.056" y="1.67" class="f">--ve</text></svg><svg x="1408"><use xlink:href="#a"/><use xlink:href="#b" x="32.996"/><text y="1.67" class="f">[mepcott@csci-odin</text><text x="19.038" y="1.67" class="f">~]$</text><text x="23.046" y="1.67" class="f">bash</text><text x="28.056" y="1.67" class="f">--ver</text></svg><svg x="1536"><use xlink:href="#a"/><use xlink:href="#b" x="33.996"/><text y="1.67" class="f">[mepcott@csci-odin</text><text x="19.038" y="1.67" class="f">~]$</text><text x="23.046" y="1.67" class="f">bash</text><text x="28.056" y="1.67" class="f">--vers</text></svg><svg x="1664"><use xlink:href="#a"/><use xlink:href="#b" x="34.996"/><text y="1.67" class="f">[mepcott@csci-odin</text><text x="19.038" y="1.67" class="f">~]$</text><text x="23.046" y="1.67" class="f">bash</text><text x="28.056" y="1.67" class="f">--versi</text></svg><svg x="1792"><use xlink:href="#a"/><use xlink:href="#b" x="35.996"/><text y="1.67" class="f">[mepcott@csci-odin</text><text x="19.038" y="1.67" class="f">~]$</text><text x="23.046" y="1.67" class="f">bash</text><text x="28.056" y="1.67" class="f">--versio</text></svg><svg x="1920"><use xlink:href="#a"/><use xlink:href="#b" x="36.996"/><use xlink:href="#3"/></svg><svg x="2048"><use xlink:href="#a"/><use xlink:href="#b" x="-.004" y="2.146"/><use xlink:href="#3"/></svg><svg x="2176"><use xlink:href="#a"/><use xlink:href="#b" x="-.004" y="13.001"/><use xlink:href="#4"/><use xlink:href="#5" y="2.171"/><use xlink:href="#6" y="4.342"/><use xlink:href="#7" y="8.684"/><use xlink:href="#8" y="10.855"/></svg><svg x="2304"><use xlink:href="#a"/><use xlink:href="#b" x="22.996" y="13.001"/><use xlink:href="#4"/><use xlink:href="#5" y="2.171"/><use xlink:href="#6" y="4.342"/><use xlink:href="#7" y="8.684"/><use xlink:href="#8" y="10.855"/><use xlink:href="#1" y="13.026"/></svg><svg x="2432"><use xlink:href="#a"/><use xlink:href="#b" x="-.004" y="13.001"/><use xlink:href="#5"/><use xlink:href="#6" y="2.171"/><use xlink:href="#7" y="6.513"/><use xlink:href="#8" y="8.684"/><text y="12.525" class="f">[mepcott@csci-odin</text><text x="19.038" y="12.525" class="f">~]$</text><text x="23.046" y="12.525" class="f">exit</text></svg></svg></g></g></svg></svg>