<svg xmlns="http://www.w3.org/2000/svg" xmlns:xlink="http://www.w3.org/1999/xlink" width="1320" height="140.13"><rect width="1320" height="125.13" rx="5" ry="5" class="a"/><svg y="0%" x="0%"><circle cx="20" cy="20" r="6" fill="#ff5f58"/><circle cx="40" cy="20" r="6" fill="#ffbd2e"/><circle cx="60" cy="20" r="6" fill="#18c132"/></svg><svg height="65.13" viewBox="0 0 128 6.513" width="1280" x="15" xmlns="http://www.w3.org/2000/svg" xmlns:xlink="http://www.w3.org/1999/xlink" y="50"><style>@keyframes i{0%{transform:translateX(0)}.81%{transform:translateX(-128px)}9.05%{transform:translateX(-256px)}12.62%{transform:translateX(-384px)}13.69%{transform:translateX(-512px)}15.82%{transform:translateX(-640px)}19.07%{transform:translateX(-768px)}24.59%{transform:translateX(-896px)}36.17%{transform:translateX(-1024px)}37.35%{transform:translateX(-1152px)}38.47%{transform:translateX(-1280px)}39.35%{transform:translateX(-1408px)}40.02%{transform:translateX(-1536px)}41.6%{transform:translateX(-1664px)}42.74%{transform:translateX(-1792px)}43.53%{transform:translateX(-1920px)}44.52%{transform:translateX(-2048px)}47.35%{transform:translateX(-2176px)}48.4%{transform:translateX(-2304px)}58.74%{transform:translateX(-2432px)}61.79%{transform:translateX(-2560px)}64.77%{transform:translateX(-2688px)}67.91%{transform:translateX(-2816px)}69.02%{transform:translateX(-2944px)}69.75%{transform:translateX(-3072px)}70.97%{transform:translateX(-3200px)}71.83%{transform:translateX(-3328px)}77.56%{transform:translateX(-3456px)}86.89%{transform:translateX(-3584px)}to{transform:translateX(-3712px)}}.a{fill:#282d35}.f{fill:#b9c0cb;white-space:pre}</style><g font-family="Monaco,Consolas,Menlo,'Bitstream Vera Sans Mono','Powerline Symbols',monospace" font-size="1.67"><defs><symbol id="1"><text y="1.67" class="f">[mepcott@csci-odin</text><text x="19.038" y="1.67" class="f">~]$</text></symbol><symbol id="2"><text y="1.67" class="f">[mepcott@csci-odin</text><text x="19.038" y="1.67" class="f">~]$</text><text x="23.046" y="1.67" class="f">echo</text></symbol><symbol id="3"><text y="1.67" class="f">[mepcott@csci-odin</text><text x="19.038" y="1.67" class="f">~]$</text><text x="23.046" y="1.67" class="f">echo</text><text x="28.056" y="1.67" class="f">&quot;login</text></symbol><symbol id="4"><text y="1.67" class="f">[mepcott@csci-odin</text><text x="19.038" y="1.67" class="f">~]$</text><text x="23.046" y="1.67" class="f">echo</text><text x="28.056" y="1.67" class="f">&quot;login</text><text x="35.07" y="1.67" class="f">shell:</text></symbol><symbol id="5"><text y="1.67" class="f">[mepcott@csci-odin</text><text x="19.038" y="1.67" class="f">~]$</text><text x="23.046" y="1.67" class="f">echo</text><text x="28.056" y="1.67" class="f">&quot;login</text><text x="35.07" y="1.67" class="f">shell:</text><text x="42.084" y="1.67" class="f">$SHELL&quot;</text></symbol><symbol id="6"><text y="1.67" class="f">login</text><text x="6.012" y="1.67" class="f">shell:</text><text x="13.026" y="1.67" class="f">/bin/bash</text></symbol><symbol id="a"><path fill="transparent" d="M0 0h128v3H0z"/></symbol><symbol id="b"><path fill="#6f7683" d="M0 0h1.102v2.171H0z"/></symbol></defs><path class="a" d="M0 0h128v6.513H0z"/><g style="animation-duration:16.687219s;animation-iteration-count:infinite;animation-name:i;animation-timing-function:steps(1,end)"><svg width="3840"><svg><use xlink:href="#a"/><use xlink:href="#b" x="-.004"/></svg><svg x="128"><use xlink:href="#a"/><use xlink:href="#b" x="22.996"/><use xlink:href="#1"/></svg><svg x="256"><use xlink:href="#a"/><use xlink:href="#b" x="23.996"/><text y="1.67" class="f">[mepcott@csci-odin</text><text x="19.038" y="1.67" class="f">~]$</text><text x="23.046" y="1.67" class="f">e</text></svg><svg x="384"><use xlink:href="#a"/><use xlink:href="#b" x="24.996"/><text y="1.67" class="f">[mepcott@csci-odin</text><text x="19.038" y="1.67" class="f">~]$</text><text x="23.046" y="1.67" class="f">ec</text></svg><svg x="512"><use xlink:href="#a"/><use xlink:href="#b" x="25.996"/><text y="1.67" class="f">[mepcott@csci-odin</text><text x="19.038" y="1.67" class="f">~]$</text><text x="23.046" y="1.67" class="f">ech</text></svg><svg x="640"><use xlink:href="#a"/><use xlink:href="#b" x="26.996"/><use xlink:href="#2"/></svg><svg x="768"><use xlink:href="#a"/><use xlink:href="#b" x="27.996"/><use xlink:href="#2"/></svg><svg x="896"><use xlink:href="#a"/><use xlink:href="#b" x="28.996"/><text y="1.67" class="f">[mepcott@csci-odin</text><text x="19.038" y="1.67" class="f">~]$</text><text x="23.046" y="1.67" class="f">echo</text><text x="28.056" y="1.67" class="f">&quot;</text></svg><svg x="1024"><use xlink:href="#a"/><use xlink:href="#b" x="29.996"/><text y="1.67" class="f">[mepcott@csci-odin</text><text x="19.038" y="1.67" class="f">~]$</text><text x="23.046" y="1.67" class="f">echo</text><text x="28.056" y="1.67" class="f">&quot;l</text></svg><svg x="1152"><use xlink:href="#a"/><use xlink:href="#b" x="30.996"/><text y="1.67" class="f">[mepcott@csci-odin</text><text x="19.038" y="1.67" class="f">~]$</text><text x="23.046" y="1.67" class="f">echo</text><text x="28.056" y="1.67" class="f">&quot;lo</text></svg><svg x="1280"><use xlink:href="#a"/><use xlink:href="#b" x="31.996"/><text y="1.67" class="f">[mepcott@csci-odin</text><text x="19.038" y="1.67" class="f">~]$</text><text x="23.046" y="1.67" class="f">echo</text><text x="28.056" y="1.67" class="f">&quot;log</text></svg><svg x="1408"><use xlink:href="#a"/><use xlink:href="#b" x="32.996"/><text y="1.67" class="f">[mepcott@csci-odin</text><text x="19.038" y="1.67" class="f">~]$</text><text x="23.046" y="1.67" class="f">echo</text><text x="28.056" y="1.67" class="f">&quot;logi</text></svg><svg x="1536"><use xlink:href="#a"/><use xlink:href="#b" x="33.996"/><use xlink:href="#3"/></svg><svg x="1664"><use xlink:href="#a"/><use xlink:href="#b" x="34.996"/><use xlink:href="#3"/></svg><svg x="1792"><use xlink:href="#a"/><use xlink:href="#b" x="35.996"/><text y="1.67" class="f">[mepcott@csci-odin</text><text x="19.038" y="1.67" class="f">~]$</text><text x="23.046" y="1.67" class="f">echo</text><text x="28.056" y="1.67" class="f">&quot;login</text><text x="35.07" y="1.67" class="f">s</text></svg><svg x="1920"><use xlink:href="#a"/><use xlink:href="#b" x="36.996"/><text y="1.67" class="f">[mepcott@csci-odin</text><text x="19.038" y="1.67" class="f">~]$</text><text x="23.046" y="1.67" class="f">echo</text><text x="28.056" y="1.67" class="f">&quot;login</text><text x="35.07" y="1.67" class="f">sh</text></svg><svg x="2048"><use xlink:href="#a"/><use xlink:href="#b" x="37.996"/><text y="1.67" class="f">[mepcott@csci-odin</text><text x="19.038" y="1.67" class="f">~]$</text><text x="23.046" y="1.67" class="f">echo</text><text x="28.056" y="1.67" class="f">&quot;login</text><text x="35.07" y="1.67" class="f">she</text></svg><svg x="2176"><use xlink:href="#a"/><use xlink:href="#b" x="38.996"/><text y="1.67" class="f">[mepcott@csci-odin</text><text x="19.038" y="1.67" class="f">~]$</text><text x="23.046" y="1.67" class="f">echo</text><text x="28.056" y="1.67" class="f">&quot;login</text><text x="35.07" y="1.67" class="f">shel</text></svg><svg x="2304"><use xlink:href="#a"/><use xlink:href="#b" x="39.996"/><text y="1.67" class="f">[mepcott@csci-odin</text><text x="19.038" y="1.67" class="f">~]$</text><text x="23.046" y="1.67" class="f">echo</text><text x="28.056" y="1.67" class="f">&quot;login</text><text x="35.07" y="1.67" class="f">shell</text></svg><svg x="2432"><use xlink:href="#a"/><use xlink:href="#b" x="40.996"/><use xlink:href="#4"/></svg><svg x="2560"><use xlink:href="#a"/><use xlink:href="#b" x="41.996"/><use xlink:href="#4"/></svg><svg x="2688"><use xlink:href="#a"/><use xlink:href="#b" x="42.996"/><text y="1.67" class="f">[mepcott@csci-odin</text><text x="19.038" y="1.67" class="f">~]$</text><text x="23.046" y="1.67" class="f">echo</text><text x="28.056" y="1.67" class="f">&quot;login</text><text x="35.07" y="1.67" class="f">shell:</text><text x="42.084" y="1.67" class="f">$</text></svg><svg x="2816"><use xlink:href="#a"/><use xlink:href="#b" x="43.996"/><text y="1.67" class="f">[mepcott@csci-odin</text><text x="19.038" y="1.67" class="f">~]$</text><text x="23.046" y="1.67" class="f">echo</text><text x="28.056" y="1.67" class="f">&quot;login</text><text x="35.07" y="1.67" class="f">shell:</text><text x="42.084" y="1.67" class="f">$S</text></svg><svg x="2944"><use xlink:href="#a"/><use xlink:href="#b" x="44.996"/><text y="1.67" class="f">[mepcott@csci-odin</text><text x="19.038" y="1.67" class="f">~]$</text><text x="23.046" y="1.67" class="f">echo</text><text x="28.056" y="1.67" class="f">&quot;login</text><text x="35.07" y="1.67" class="f">shell:</text><text x="42.084" y="1.67" class="f">$SH</text></svg><svg x="3072"><use xlink:href="#a"/><use xlink:href="#b" x="45.996"/><text y="1.67" class="f">[mepcott@csci-odin</text><text x="19.038" y="1.67" class="f">~]$</text><text x="23.046" y="1.67" class="f">echo</text><text x="28.056" y="1.67" class="f">&quot;login</text><text x="35.07" y="1.67" class="f">shell:</text><text x="42.084" y="1.67" class="f">$SHE</text></svg><svg x="3200"><use xlink:href="#a"/><use xlink:href="#b" x="46.996"/><text y="1.67" class="f">[mepcott@csci-odin</text><text x="19.038" y="1.67" class="f">~]$</text><text x="23.046" y="1.67" class="f">echo</text><text x="28.056" y="1.67" class="f">&quot;login</text><text x="35.07" y="1.67" class="f">shell:</text><text x="42.084" y="1.67" class="f">$SHEL</text></svg><svg x="3328"><use xlink:href="#a"/><use xlink:href="#b" x="47.996"/><text y="1.67" class="f">[mepcott@csci-odin</text><text x="19.038" y="1.67" class="f">~]$</text><text x="23.046" y="1.67" class="f">echo</text><text x="28.056" y="1.67" class="f">&quot;login</text><text x="35.07" y="1.67" class="f">shell:</text><text x="42.084" y="1.67" class="f">$SHELL</text></svg><svg x="3456"><use xlink:href="#a"/><use xlink:href="#b" x="48.996"/><use xlink:href="#5"/></svg><svg x="3584"><use xlink:href="#a"/><use xlink:href="#b" x="22.996" y="4.317"/><use xlink:href="#5"/><use xlink:href="#6" y="2.171"/><use xlink:href="#1" y="4.342"/></svg><svg x="3712"><use xlink:href="#a"/><use xlink:href="#b" x="-.004" y="4.317"/><use xlink:href="#6"/><text y="3.841" class="f">[mepcott@csci-odin</text><text x="19.038" y="3.841" class="f">~]$</text><text x="23.046" y="3.841" class="f">exit</text></svg></svg></g></g></svg></svg>