<svg xmlns="http://www.w3.org/2000/svg" xmlns:xlink="http://www.w3.org/1999/xlink" width="1320" height="689.59"><rect width="1320" height="689.59" rx="5" ry="5" class="a"/><svg y="0%" x="0%"><circle cx="20" cy="20" r="6" fill="#ff5f58"/><circle cx="40" cy="20" r="6" fill="#ffbd2e"/><circle cx="60" cy="20" r="6" fill="#18c132"/></svg><svg height="629.59" viewBox="0 0 128 62.959" width="1280" x="15" xmlns="http://www.w3.org/2000/svg" xmlns:xlink="http://www.w3.org/1999/xlink" y="50"><style>@keyframes j{0%{transform:translateX(0)}1.46%{transform:translateX(-256px)}7.46%{transform:translateX(-384px)}8.15%{transform:translateX(-512px)}8.98%{transform:translateX(-640px)}11.21%{transform:translateX(-768px)}12.96%{transform:translateX(-896px)}13.66%{transform:translateX(-1024px)}14.68%{transform:translateX(-1152px)}15.48%{transform:translateX(-1280px)}16.31%{transform:translateX(-1408px)}17.29%{transform:translateX(-1536px)}17.78%{transform:translateX(-1664px)}21.13%{transform:translateX(-1792px)}23.38%{transform:translateX(-1920px)}24.09%{transform:translateX(-2048px)}24.92%{transform:translateX(-2176px)}25.51%{transform:translateX(-2304px)}26.77%{transform:translateX(-2432px)}27.58%{transform:translateX(-2560px)}28.15%{transform:translateX(-2688px)}28.85%{transform:translateX(-2816px)}30.28%{transform:translateX(-2944px)}30.74%{transform:translateX(-3072px)}31.57%{transform:translateX(-3200px)}32.35%{transform:translateX(-3328px)}32.94%{transform:translateX(-3456px)}33.63%{transform:translateX(-3584px)}34.64%{transform:translateX(-3712px)}37.4%{transform:translateX(-3840px)}37.41%{transform:translateX(-3968px)}39.86%{transform:translateX(-4096px)}42.09%{transform:translateX(-4224px)}42.87%{transform:translateX(-4352px)}42.92%{transform:translateX(-4480px)}42.98%{transform:translateX(-4608px)}43.83%{transform:translateX(-4736px)}44.92%{transform:translateX(-4864px)}44.96%{transform:translateX(-4992px)}44.99%{transform:translateX(-5248px)}45.02%{transform:translateX(-5376px)}45.04%{transform:translateX(-5504px)}59.55%{transform:translateX(-5632px)}60.24%{transform:translateX(-5760px)}61.36%{transform:translateX(-5888px)}62.51%{transform:translateX(-6016px)}63.5%{transform:translateX(-6144px)}64.66%{transform:translateX(-6272px)}75.22%{transform:translateX(-6400px)}86.34%{transform:translateX(-6528px)}87.54%{transform:translateX(-6656px)}89.08%{transform:translateX(-6784px)}89.65%{transform:translateX(-6912px)}91.86%{transform:translateX(-7168px)}91.87%{transform:translateX(-8064px)}to{transform:translateX(-8192px)}}.a{fill:#282d35}.f,.g{fill:#b9c0cb;white-space:pre}.g{font-weight:700}</style><g font-family="Monaco,Consolas,Menlo,'Bitstream Vera Sans Mono','Powerline Symbols',monospace" font-size="1.67"><defs><symbol id="1"><text y="1.67" class="f">mepcotterell@io</text><text x="16.032" y="1.67" class="f">~</text><text x="18.036" y="1.67" class="f">%</text></symbol><symbol id="2"><text y="1.67" class="f">mepcotterell@io</text><text x="16.032" y="1.67" class="f">~</text><text x="18.036" y="1.67" class="f">%</text><text x="20.04" y="1.67" class="f">ssh</text></symbol><symbol id="3"><text y="1.67" class="f">mepcotterell@io</text><text x="16.032" y="1.67" class="f">~</text><text x="18.036" y="1.67" class="f">%</text><text x="20.04" y="1.67" class="f">ssh</text><text x="24.048" y="1.67" class="f">mepcott@odin.cs.uga.edu</text></symbol><symbol id="4"><text y="1.67" class="f">Welcome</text><text x="8.016" y="1.67" class="f">to</text><text x="11.022" y="1.67" class="f">odin.cs.uga.edu.</text></symbol><symbol id="5"><text y="1.67" class="f">Current</text><text x="8.016" y="1.67" class="f">Computer</text><text x="17.034" y="1.67" class="f">Science</text><text x="25.05" y="1.67" class="f">Students</text><text x="34.068" y="1.67" class="f">can</text><text x="38.076" y="1.67" class="f">login</text><text x="44.088" y="1.67" class="f">with</text><text x="49.098" y="1.67" class="f">their</text><text x="55.11" y="1.67" class="f">myID</text><text x="60.12" y="1.67" class="f">credentials.</text></symbol><symbol id="6"><text y="1.67" class="f">Contact</text><text x="8.016" y="1.67" class="f">support@cs.uga.edu</text><text x="27.054" y="1.67" class="f">with</text><text x="32.064" y="1.67" class="f">any</text><text x="36.072" y="1.67" class="f">requests</text><text x="45.09" y="1.67" class="f">or</text><text x="48.096" y="1.67" class="f">questions.</text></symbol><symbol id="7"><text y="1.67" class="f">Login</text><text x="6.012" y="1.67" class="f">with</text><text x="11.022" y="1.67" class="f">myID</text><text x="16.032" y="1.67" class="f">credentials.</text><text x="29.058" y="1.67" class="f">For</text><text x="33.066" y="1.67" class="f">most</text><text x="38.076" y="1.67" class="f">students</text><text x="47.094" y="1.67" class="f">that</text><text x="52.104" y="1.67" class="f">will</text><text x="57.114" y="1.67" class="f">be</text><text x="60.12" y="1.67" class="f">initials</text><text x="69.138" y="1.67" class="f">followed</text><text x="78.156" y="1.67" class="f">by</text><text x="81.162" y="1.67" class="f">5</text><text x="83.166" y="1.67" class="f">digits.</text></symbol><symbol id="8"><text y="1.67" class="f">Last</text><text x="5.01" y="1.67" class="f">login:</text><text x="12.024" y="1.67" class="f">Tue</text><text x="16.032" y="1.67" class="f">Aug</text><text x="20.04" y="1.67" class="f">17</text><text x="23.046" y="1.67" class="f">00:57:48</text><text x="32.064" y="1.67" class="f">2021</text><text x="37.074" y="1.67" class="f">from</text><text x="42.084" y="1.67" class="f">vpn-s117-h92.standard.vpn.uga.edu</text></symbol><symbol id="9"><text y="1.67" class="f">Welcome</text><text x="8.016" y="1.67" class="f">to</text><text x="11.022" y="1.67" class="f">Odin.</text></symbol><symbol id="10"><text y="1.67" class="f">This</text><text x="5.01" y="1.67" class="f">is</text><text x="8.016" y="1.67" class="f">the</text><text x="12.024" y="1.67" class="f">UGA</text><text x="16.032" y="1.67" class="f">Computer</text><text x="25.05" y="1.67" class="f">Science</text><text x="33.066" y="1.67" class="f">Instructional</text><text x="47.094" y="1.67" class="f">server.</text></symbol><symbol id="11"><text y="1.67" class="f">If</text><text x="3.006" y="1.67" class="f">you</text><text x="7.014" y="1.67" class="f">need</text><text x="12.024" y="1.67" class="f">a</text><text x="14.028" y="1.67" class="f">place</text><text x="20.04" y="1.67" class="f">to</text><text x="23.046" y="1.67" class="f">run</text><text x="27.054" y="1.67" class="f">research,</text><text x="37.074" y="1.67" class="f">long</text><text x="42.084" y="1.67" class="f">term</text><text x="47.094" y="1.67" class="f">or</text><text x="50.1" y="1.67" class="f">very</text><text x="55.11" y="1.67" class="f">compute</text><text x="63.126" y="1.67" class="f">intensive</text><text x="73.146" y="1.67" class="f">projects</text><text x="82.164" y="1.67" class="f">please</text><text x="89.178" y="1.67" class="f">ask.</text></symbol><symbol id="12"><text y="1.67" class="f">Please</text><text x="7.014" y="1.67" class="f">send</text><text x="12.024" y="1.67" class="f">all</text><text x="16.032" y="1.67" class="f">questions</text><text x="26.052" y="1.67" class="f">and</text><text x="30.06" y="1.67" class="f">requests</text><text x="39.078" y="1.67" class="f">to</text><text x="42.084" y="1.67" class="f">support@cs.uga.edu.</text></symbol><symbol id="13"><text y="1.67" class="f">================================================================================================================================</text></symbol><symbol id="14"><text y="1.67" class="g">Setting</text><text x="8.016" y="1.67" class="g">up</text><text x="11.022" y="1.67" class="g">environment</text><text x="23.046" y="1.67" class="g">for</text><text x="27.054" y="1.67" class="g">CSCI</text><text x="32.064" y="1.67" class="g">1302...</text></symbol><symbol id="15"><text y="1.67" class="g">[cs1302]</text><text x="9.018" y="1.67" class="f">Profile:</text><text x="18.036" y="1.67" class="f">/usr/local/mepcott/cs1302.profile</text></symbol><symbol id="16"><text y="1.67" class="g">[cs1302]</text><text x="9.018" y="1.67" class="f">Maven</text><text x="15.03" y="1.67" class="f">home:</text><text x="21.042" y="1.67" class="f">/usr/local/mepcott/cs1302/apache-maven</text></symbol><symbol id="17"><text y="1.67" class="g">[cs1302]</text><text x="9.018" y="1.67" class="f">Java</text><text x="14.028" y="1.67" class="f">version:</text><text x="23.046" y="1.67" class="f">11.0.10,</text><text x="32.064" y="1.67" class="f">vendor:</text><text x="40.08" y="1.67" class="f">Oracle</text><text x="47.094" y="1.67" class="f">Corporation,</text><text x="60.12" y="1.67" class="f">runtime:</text><text x="69.138" y="1.67" class="f">/usr/local/mepcott/jdk/jdk-11.0.10</text></symbol><symbol id="18"><text y="1.67" class="g">[cs1302]</text><text x="9.018" y="1.67" class="f">Checkstyle</text><text x="20.04" y="1.67" class="f">version:</text><text x="29.058" y="1.67" class="f">8.40</text></symbol><symbol id="19"><text y="1.67" class="g">[cs1302]</text><text x="9.018" y="1.67" class="f">Git</text><text x="13.026" y="1.67" class="f">version:</text><text x="22.044" y="1.67" class="f">2.30.0.452.gfb7fa4a</text></symbol><symbol id="20"><text y="1.67" class="g">[cs1302]</text><text x="9.018" y="1.67" class="f">Webwork:</text><text x="18.036" y="1.67" class="f">https://webwork.cs.uga.edu/~mepcott/</text><text x="55.11" y="1.67" class="f">-&gt;</text><text x="58.116" y="1.67" class="f">~/public_html/</text></symbol><symbol id="21"><text y="1.67" class="g">[cs1302]</text><text x="9.018" y="1.67" class="f">UGA</text><text x="13.026" y="1.67" class="f">Policies</text><text x="22.044" y="1.67" class="f">on</text><text x="25.05" y="1.67" class="f">the</text><text x="29.058" y="1.67" class="f">Use</text><text x="33.066" y="1.67" class="f">of</text><text x="36.072" y="1.67" class="f">Computers:</text><text x="47.094" y="1.67" class="f">https://t.uga.edu/2FS</text></symbol><symbol id="22"><text y="1.67" class="f">mepcott@csci-odin:~$</text></symbol><symbol id="23"><text y="1.67" class="f">mepcott@csci-odin:~$</text><text x="21.042" y="1.67" class="f">whoami</text></symbol><symbol id="24"><text y="1.67" class="f">mepcott</text></symbol><symbol id="25"><text y="1.67" class="f">mepcott@csci-odin:~$</text><text x="21.042" y="1.67" class="f">exit</text></symbol><symbol id="26"><text y="1.67" class="f">logout</text></symbol><symbol id="27"><text y="1.67" class="f">Connection</text><text x="11.022" y="1.67" class="f">to</text><text x="14.028" y="1.67" class="f">odin.cs.uga.edu</text><text x="30.06" y="1.67" class="f">closed.</text></symbol><symbol id="a"><path fill="transparent" d="M0 0h128v29H0z"/></symbol><symbol id="b"><path fill="#6f7683" d="M0 0h1.102v2.171H0z"/></symbol></defs><path class="a" d="M0 0h128v62.959H0z"/><g style="animation-duration:24.208403s;animation-iteration-count:infinite;animation-name:j;animation-timing-function:steps(1,end)"><svg width="8320"><svg><use xlink:href="#a"/><use xlink:href="#b" x="-.004"/></svg><svg x="128"><use xlink:href="#a"/><use xlink:href="#b" x="-.004"/></svg><svg x="256"><use xlink:href="#a"/><use xlink:href="#b" x="19.996"/><use xlink:href="#1"/></svg><svg x="384"><use xlink:href="#a"/><use xlink:href="#b" x="20.996"/><text y="1.67" class="f">mepcotterell@io</text><text x="16.032" y="1.67" class="f">~</text><text x="18.036" y="1.67" class="f">%</text><text x="20.04" y="1.67" class="f">s</text></svg><svg x="512"><use xlink:href="#a"/><use xlink:href="#b" x="21.996"/><text y="1.67" class="f">mepcotterell@io</text><text x="16.032" y="1.67" class="f">~</text><text x="18.036" y="1.67" class="f">%</text><text x="20.04" y="1.67" class="f">ss</text></svg><svg x="640"><use xlink:href="#a"/><use xlink:href="#b" x="22.996"/><use xlink:href="#2"/></svg><svg x="768"><use xlink:href="#a"/><use xlink:href="#b" x="23.996"/><use xlink:href="#2"/></svg><svg x="896"><use xlink:href="#a"/><use xlink:href="#b" x="24.996"/><text y="1.67" class="f">mepcotterell@io</text><text x="16.032" y="1.67" class="f">~</text><text x="18.036" y="1.67" class="f">%</text><text x="20.04" y="1.67" class="f">ssh</text><text x="24.048" y="1.67" class="f">m</text></svg><svg x="1024"><use xlink:href="#a"/><use xlink:href="#b" x="25.996"/><text y="1.67" class="f">mepcotterell@io</text><text x="16.032" y="1.67" class="f">~</text><text x="18.036" y="1.67" class="f">%</text><text x="20.04" y="1.67" class="f">ssh</text><text x="24.048" y="1.67" class="f">me</text></svg><svg x="1152"><use xlink:href="#a"/><use xlink:href="#b" x="26.996"/><text y="1.67" class="f">mepcotterell@io</text><text x="16.032" y="1.67" class="f">~</text><text x="18.036" y="1.67" class="f">%</text><text x="20.04" y="1.67" class="f">ssh</text><text x="24.048" y="1.67" class="f">mep</text></svg><svg x="1280"><use xlink:href="#a"/><use xlink:href="#b" x="27.996"/><text y="1.67" class="f">mepcotterell@io</text><text x="16.032" y="1.67" class="f">~</text><text x="18.036" y="1.67" class="f">%</text><text x="20.04" y="1.67" class="f">ssh</text><text x="24.048" y="1.67" class="f">mepc</text></svg><svg x="1408"><use xlink:href="#a"/><use xlink:href="#b" x="28.996"/><text y="1.67" class="f">mepcotterell@io</text><text x="16.032" y="1.67" class="f">~</text><text x="18.036" y="1.67" class="f">%</text><text x="20.04" y="1.67" class="f">ssh</text><text x="24.048" y="1.67" class="f">mepco</text></svg><svg x="1536"><use xlink:href="#a"/><use xlink:href="#b" x="29.996"/><text y="1.67" class="f">mepcotterell@io</text><text x="16.032" y="1.67" class="f">~</text><text x="18.036" y="1.67" class="f">%</text><text x="20.04" y="1.67" class="f">ssh</text><text x="24.048" y="1.67" class="f">mepcot</text></svg><svg x="1664"><use xlink:href="#a"/><use xlink:href="#b" x="30.996"/><text y="1.67" class="f">mepcotterell@io</text><text x="16.032" y="1.67" class="f">~</text><text x="18.036" y="1.67" class="f">%</text><text x="20.04" y="1.67" class="f">ssh</text><text x="24.048" y="1.67" class="f">mepcott</text></svg><svg x="1792"><use xlink:href="#a"/><use xlink:href="#b" x="31.996"/><text y="1.67" class="f">mepcotterell@io</text><text x="16.032" y="1.67" class="f">~</text><text x="18.036" y="1.67" class="f">%</text><text x="20.04" y="1.67" class="f">ssh</text><text x="24.048" y="1.67" class="f">mepcott@</text></svg><svg x="1920"><use xlink:href="#a"/><use xlink:href="#b" x="32.996"/><text y="1.67" class="f">mepcotterell@io</text><text x="16.032" y="1.67" class="f">~</text><text x="18.036" y="1.67" class="f">%</text><text x="20.04" y="1.67" class="f">ssh</text><text x="24.048" y="1.67" class="f">mepcott@o</text></svg><svg x="2048"><use xlink:href="#a"/><use xlink:href="#b" x="33.996"/><text y="1.67" class="f">mepcotterell@io</text><text x="16.032" y="1.67" class="f">~</text><text x="18.036" y="1.67" class="f">%</text><text x="20.04" y="1.67" class="f">ssh</text><text x="24.048" y="1.67" class="f">mepcott@od</text></svg><svg x="2176"><use xlink:href="#a"/><use xlink:href="#b" x="34.996"/><text y="1.67" class="f">mepcotterell@io</text><text x="16.032" y="1.67" class="f">~</text><text x="18.036" y="1.67" class="f">%</text><text x="20.04" y="1.67" class="f">ssh</text><text x="24.048" y="1.67" class="f">mepcott@odi</text></svg><svg x="2304"><use xlink:href="#a"/><use xlink:href="#b" x="35.996"/><text y="1.67" class="f">mepcotterell@io</text><text x="16.032" y="1.67" class="f">~</text><text x="18.036" y="1.67" class="f">%</text><text x="20.04" y="1.67" class="f">ssh</text><text x="24.048" y="1.67" class="f">mepcott@odin</text></svg><svg x="2432"><use xlink:href="#a"/><use xlink:href="#b" x="36.996"/><text y="1.67" class="f">mepcotterell@io</text><text x="16.032" y="1.67" class="f">~</text><text x="18.036" y="1.67" class="f">%</text><text x="20.04" y="1.67" class="f">ssh</text><text x="24.048" y="1.67" class="f">mepcott@odin.</text></svg><svg x="2560"><use xlink:href="#a"/><use xlink:href="#b" x="37.996"/><text y="1.67" class="f">mepcotterell@io</text><text x="16.032" y="1.67" class="f">~</text><text x="18.036" y="1.67" class="f">%</text><text x="20.04" y="1.67" class="f">ssh</text><text x="24.048" y="1.67" class="f">mepcott@odin.c</text></svg><svg x="2688"><use xlink:href="#a"/><use xlink:href="#b" x="38.996"/><text y="1.67" class="f">mepcotterell@io</text><text x="16.032" y="1.67" class="f">~</text><text x="18.036" y="1.67" class="f">%</text><text x="20.04" y="1.67" class="f">ssh</text><text x="24.048" y="1.67" class="f">mepcott@odin.cs</text></svg><svg x="2816"><use xlink:href="#a"/><use xlink:href="#b" x="39.996"/><text y="1.67" class="f">mepcotterell@io</text><text x="16.032" y="1.67" class="f">~</text><text x="18.036" y="1.67" class="f">%</text><text x="20.04" y="1.67" class="f">ssh</text><text x="24.048" y="1.67" class="f">mepcott@odin.cs.</text></svg><svg x="2944"><use xlink:href="#a"/><use xlink:href="#b" x="40.996"/><text y="1.67" class="f">mepcotterell@io</text><text x="16.032" y="1.67" class="f">~</text><text x="18.036" y="1.67" class="f">%</text><text x="20.04" y="1.67" class="f">ssh</text><text x="24.048" y="1.67" class="f">mepcott@odin.cs.u</text></svg><svg x="3072"><use xlink:href="#a"/><use xlink:href="#b" x="41.996"/><text y="1.67" class="f">mepcotterell@io</text><text x="16.032" y="1.67" class="f">~</text><text x="18.036" y="1.67" class="f">%</text><text x="20.04" y="1.67" class="f">ssh</text><text x="24.048" y="1.67" class="f">mepcott@odin.cs.ug</text></svg><svg x="3200"><use xlink:href="#a"/><use xlink:href="#b" x="42.996"/><text y="1.67" class="f">mepcotterell@io</text><text x="16.032" y="1.67" class="f">~</text><text x="18.036" y="1.67" class="f">%</text><text x="20.04" y="1.67" class="f">ssh</text><text x="24.048" y="1.67" class="f">mepcott@odin.cs.uga</text></svg><svg x="3328"><use xlink:href="#a"/><use xlink:href="#b" x="43.996"/><text y="1.67" class="f">mepcotterell@io</text><text x="16.032" y="1.67" class="f">~</text><text x="18.036" y="1.67" class="f">%</text><text x="20.04" y="1.67" class="f">ssh</text><text x="24.048" y="1.67" class="f">mepcott@odin.cs.uga.</text></svg><svg x="3456"><use xlink:href="#a"/><use xlink:href="#b" x="44.996"/><text y="1.67" class="f">mepcotterell@io</text><text x="16.032" y="1.67" class="f">~</text><text x="18.036" y="1.67" class="f">%</text><text x="20.04" y="1.67" class="f">ssh</text><text x="24.048" y="1.67" class="f">mepcott@odin.cs.uga.e</text></svg><svg x="3584"><use xlink:href="#a"/><use xlink:href="#b" x="45.996"/><text y="1.67" class="f">mepcotterell@io</text><text x="16.032" y="1.67" class="f">~</text><text x="18.036" y="1.67" class="f">%</text><text x="20.04" y="1.67" class="f">ssh</text><text x="24.048" y="1.67" class="f">mepcott@odin.cs.uga.ed</text></svg><svg x="3712"><use xlink:href="#a"/><use xlink:href="#b" x="46.996"/><use xlink:href="#3"/></svg><svg x="3840"><use xlink:href="#a"/><use xlink:href="#b" x="-.004" y="2.146"/><use xlink:href="#3"/></svg><svg x="3968"><use xlink:href="#a"/><use xlink:href="#b" x="-.004" y="2.146"/><use xlink:href="#3"/></svg><svg x="4096"><use xlink:href="#a"/><use xlink:href="#b" x="-.004" y="10.83"/><use xlink:href="#3"/><use xlink:href="#4" y="2.171"/><use xlink:href="#5" y="4.342"/><use xlink:href="#6" y="6.513"/><use xlink:href="#7" y="8.684"/></svg><svg x="4224"><use xlink:href="#a"/><use xlink:href="#b" x="-.004" y="21.685"/><use xlink:href="#3"/><use xlink:href="#4" y="2.171"/><use xlink:href="#5" y="4.342"/><use xlink:href="#6" y="6.513"/><use xlink:href="#7" y="8.684"/><use xlink:href="#8" y="10.855"/><use xlink:href="#9" y="13.026"/><use xlink:href="#10" y="15.197"/><use xlink:href="#11" y="17.368"/><use xlink:href="#12" y="19.539"/></svg><svg x="4352"><use xlink:href="#a"/><use xlink:href="#b" x="-.004" y="23.856"/><use xlink:href="#3"/><use xlink:href="#4" y="2.171"/><use xlink:href="#5" y="4.342"/><use xlink:href="#6" y="6.513"/><use xlink:href="#7" y="8.684"/><use xlink:href="#8" y="10.855"/><use xlink:href="#9" y="13.026"/><use xlink:href="#10" y="15.197"/><use xlink:href="#11" y="17.368"/><use xlink:href="#12" y="19.539"/><use xlink:href="#13" y="21.71"/></svg><svg x="4480"><use xlink:href="#a"/><use xlink:href="#b" x="-.004" y="26.027"/><use xlink:href="#3"/><use xlink:href="#4" y="2.171"/><use xlink:href="#5" y="4.342"/><use xlink:href="#6" y="6.513"/><use xlink:href="#7" y="8.684"/><use xlink:href="#8" y="10.855"/><use xlink:href="#9" y="13.026"/><use xlink:href="#10" y="15.197"/><use xlink:href="#11" y="17.368"/><use xlink:href="#12" y="19.539"/><use xlink:href="#13" y="21.71"/><use xlink:href="#14" y="23.881"/></svg><svg x="4608"><use xlink:href="#a"/><use xlink:href="#b" x="-.004" y="28.198"/><use xlink:href="#3"/><use xlink:href="#4" y="2.171"/><use xlink:href="#5" y="4.342"/><use xlink:href="#6" y="6.513"/><use xlink:href="#7" y="8.684"/><use xlink:href="#8" y="10.855"/><use xlink:href="#9" y="13.026"/><use xlink:href="#10" y="15.197"/><use xlink:href="#11" y="17.368"/><use xlink:href="#12" y="19.539"/><use xlink:href="#13" y="21.71"/><use xlink:href="#14" y="23.881"/><use xlink:href="#15" y="26.052"/></svg><svg x="4736"><use xlink:href="#a"/><use xlink:href="#b" x="-.004" y="32.54"/><use xlink:href="#3"/><use xlink:href="#4" y="2.171"/><use xlink:href="#5" y="4.342"/><use xlink:href="#6" y="6.513"/><use xlink:href="#7" y="8.684"/><use xlink:href="#8" y="10.855"/><use xlink:href="#9" y="13.026"/><use xlink:href="#10" y="15.197"/><use xlink:href="#11" y="17.368"/><use xlink:href="#12" y="19.539"/><use xlink:href="#13" y="21.71"/><use xlink:href="#14" y="23.881"/><use xlink:href="#15" y="26.052"/><use xlink:href="#16" y="28.223"/><use xlink:href="#17" y="30.394"/></svg><svg x="4864"><use xlink:href="#a"/><use xlink:href="#b" x="-.004" y="34.711"/><use xlink:href="#3"/><use xlink:href="#4" y="2.171"/><use xlink:href="#5" y="4.342"/><use xlink:href="#6" y="6.513"/><use xlink:href="#7" y="8.684"/><use xlink:href="#8" y="10.855"/><use xlink:href="#9" y="13.026"/><use xlink:href="#10" y="15.197"/><use xlink:href="#11" y="17.368"/><use xlink:href="#12" y="19.539"/><use xlink:href="#13" y="21.71"/><use xlink:href="#14" y="23.881"/><use xlink:href="#15" y="26.052"/><use xlink:href="#16" y="28.223"/><use xlink:href="#17" y="30.394"/><use xlink:href="#18" y="32.565"/></svg><svg x="4992"><use xlink:href="#a"/><use xlink:href="#b" x="-.004" y="36.882"/><use xlink:href="#3"/><use xlink:href="#4" y="2.171"/><use xlink:href="#5" y="4.342"/><use xlink:href="#6" y="6.513"/><use xlink:href="#7" y="8.684"/><use xlink:href="#8" y="10.855"/><use xlink:href="#9" y="13.026"/><use xlink:href="#10" y="15.197"/><use xlink:href="#11" y="17.368"/><use xlink:href="#12" y="19.539"/><use xlink:href="#13" y="21.71"/><use xlink:href="#14" y="23.881"/><use xlink:href="#15" y="26.052"/><use xlink:href="#16" y="28.223"/><use xlink:href="#17" y="30.394"/><use xlink:href="#18" y="32.565"/><use xlink:href="#19" y="34.736"/></svg><svg x="5120"><use xlink:href="#a"/><use xlink:href="#b" x="-.004" y="39.053"/><use xlink:href="#3"/><use xlink:href="#4" y="2.171"/><use xlink:href="#5" y="4.342"/><use xlink:href="#6" y="6.513"/><use xlink:href="#7" y="8.684"/><use xlink:href="#8" y="10.855"/><use xlink:href="#9" y="13.026"/><use xlink:href="#10" y="15.197"/><use xlink:href="#11" y="17.368"/><use xlink:href="#12" y="19.539"/><use xlink:href="#13" y="21.71"/><use xlink:href="#14" y="23.881"/><use xlink:href="#15" y="26.052"/><use xlink:href="#16" y="28.223"/><use xlink:href="#17" y="30.394"/><use xlink:href="#18" y="32.565"/><use xlink:href="#19" y="34.736"/><use xlink:href="#20" y="36.907"/></svg><svg x="5248"><use xlink:href="#a"/><use xlink:href="#b" x="-.004" y="41.224"/><use xlink:href="#3"/><use xlink:href="#4" y="2.171"/><use xlink:href="#5" y="4.342"/><use xlink:href="#6" y="6.513"/><use xlink:href="#7" y="8.684"/><use xlink:href="#8" y="10.855"/><use xlink:href="#9" y="13.026"/><use xlink:href="#10" y="15.197"/><use xlink:href="#11" y="17.368"/><use xlink:href="#12" y="19.539"/><use xlink:href="#13" y="21.71"/><use xlink:href="#14" y="23.881"/><use xlink:href="#15" y="26.052"/><use xlink:href="#16" y="28.223"/><use xlink:href="#17" y="30.394"/><use xlink:href="#18" y="32.565"/><use xlink:href="#19" y="34.736"/><use xlink:href="#20" y="36.907"/><use xlink:href="#21" y="39.078"/></svg><svg x="5376"><use xlink:href="#a"/><use xlink:href="#b" x="-.004" y="43.395"/><use xlink:href="#3"/><use xlink:href="#4" y="2.171"/><use xlink:href="#5" y="4.342"/><use xlink:href="#6" y="6.513"/><use xlink:href="#7" y="8.684"/><use xlink:href="#8" y="10.855"/><use xlink:href="#9" y="13.026"/><use xlink:href="#10" y="15.197"/><use xlink:href="#11" y="17.368"/><use xlink:href="#12" y="19.539"/><use xlink:href="#13" y="21.71"/><use xlink:href="#14" y="23.881"/><use xlink:href="#15" y="26.052"/><use xlink:href="#16" y="28.223"/><use xlink:href="#17" y="30.394"/><use xlink:href="#18" y="32.565"/><use xlink:href="#19" y="34.736"/><use xlink:href="#20" y="36.907"/><use xlink:href="#21" y="39.078"/><use xlink:href="#13" y="41.249"/></svg><svg x="5504"><use xlink:href="#a"/><use xlink:href="#b" x="20.996" y="43.395"/><use xlink:href="#3"/><use xlink:href="#4" y="2.171"/><use xlink:href="#5" y="4.342"/><use xlink:href="#6" y="6.513"/><use xlink:href="#7" y="8.684"/><use xlink:href="#8" y="10.855"/><use xlink:href="#9" y="13.026"/><use xlink:href="#10" y="15.197"/><use xlink:href="#11" y="17.368"/><use xlink:href="#12" y="19.539"/><use xlink:href="#13" y="21.71"/><use xlink:href="#14" y="23.881"/><use xlink:href="#15" y="26.052"/><use xlink:href="#16" y="28.223"/><use xlink:href="#17" y="30.394"/><use xlink:href="#18" y="32.565"/><use xlink:href="#19" y="34.736"/><use xlink:href="#20" y="36.907"/><use xlink:href="#21" y="39.078"/><use xlink:href="#13" y="41.249"/><use xlink:href="#22" y="43.42"/></svg><svg x="5632"><use xlink:href="#a"/><use xlink:href="#b" x="21.996" y="43.395"/><use xlink:href="#3"/><use xlink:href="#4" y="2.171"/><use xlink:href="#5" y="4.342"/><use xlink:href="#6" y="6.513"/><use xlink:href="#7" y="8.684"/><use xlink:href="#8" y="10.855"/><use xlink:href="#9" y="13.026"/><use xlink:href="#10" y="15.197"/><use xlink:href="#11" y="17.368"/><use xlink:href="#12" y="19.539"/><use xlink:href="#13" y="21.71"/><use xlink:href="#14" y="23.881"/><use xlink:href="#15" y="26.052"/><use xlink:href="#16" y="28.223"/><use xlink:href="#17" y="30.394"/><use xlink:href="#18" y="32.565"/><use xlink:href="#19" y="34.736"/><use xlink:href="#20" y="36.907"/><use xlink:href="#21" y="39.078"/><use xlink:href="#13" y="41.249"/><text y="45.09" class="f">mepcott@csci-odin:~$</text><text x="21.042" y="45.09" class="f">w</text></svg><svg x="5760"><use xlink:href="#a"/><use xlink:href="#b" x="22.996" y="43.395"/><use xlink:href="#3"/><use xlink:href="#4" y="2.171"/><use xlink:href="#5" y="4.342"/><use xlink:href="#6" y="6.513"/><use xlink:href="#7" y="8.684"/><use xlink:href="#8" y="10.855"/><use xlink:href="#9" y="13.026"/><use xlink:href="#10" y="15.197"/><use xlink:href="#11" y="17.368"/><use xlink:href="#12" y="19.539"/><use xlink:href="#13" y="21.71"/><use xlink:href="#14" y="23.881"/><use xlink:href="#15" y="26.052"/><use xlink:href="#16" y="28.223"/><use xlink:href="#17" y="30.394"/><use xlink:href="#18" y="32.565"/><use xlink:href="#19" y="34.736"/><use xlink:href="#20" y="36.907"/><use xlink:href="#21" y="39.078"/><use xlink:href="#13" y="41.249"/><text y="45.09" class="f">mepcott@csci-odin:~$</text><text x="21.042" y="45.09" class="f">wh</text></svg><svg x="5888"><use xlink:href="#a"/><use xlink:href="#b" x="23.996" y="43.395"/><use xlink:href="#3"/><use xlink:href="#4" y="2.171"/><use xlink:href="#5" y="4.342"/><use xlink:href="#6" y="6.513"/><use xlink:href="#7" y="8.684"/><use xlink:href="#8" y="10.855"/><use xlink:href="#9" y="13.026"/><use xlink:href="#10" y="15.197"/><use xlink:href="#11" y="17.368"/><use xlink:href="#12" y="19.539"/><use xlink:href="#13" y="21.71"/><use xlink:href="#14" y="23.881"/><use xlink:href="#15" y="26.052"/><use xlink:href="#16" y="28.223"/><use xlink:href="#17" y="30.394"/><use xlink:href="#18" y="32.565"/><use xlink:href="#19" y="34.736"/><use xlink:href="#20" y="36.907"/><use xlink:href="#21" y="39.078"/><use xlink:href="#13" y="41.249"/><text y="45.09" class="f">mepcott@csci-odin:~$</text><text x="21.042" y="45.09" class="f">who</text></svg><svg x="6016"><use xlink:href="#a"/><use xlink:href="#b" x="24.996" y="43.395"/><use xlink:href="#3"/><use xlink:href="#4" y="2.171"/><use xlink:href="#5" y="4.342"/><use xlink:href="#6" y="6.513"/><use xlink:href="#7" y="8.684"/><use xlink:href="#8" y="10.855"/><use xlink:href="#9" y="13.026"/><use xlink:href="#10" y="15.197"/><use xlink:href="#11" y="17.368"/><use xlink:href="#12" y="19.539"/><use xlink:href="#13" y="21.71"/><use xlink:href="#14" y="23.881"/><use xlink:href="#15" y="26.052"/><use xlink:href="#16" y="28.223"/><use xlink:href="#17" y="30.394"/><use xlink:href="#18" y="32.565"/><use xlink:href="#19" y="34.736"/><use xlink:href="#20" y="36.907"/><use xlink:href="#21" y="39.078"/><use xlink:href="#13" y="41.249"/><text y="45.09" class="f">mepcott@csci-odin:~$</text><text x="21.042" y="45.09" class="f">whoa</text></svg><svg x="6144"><use xlink:href="#a"/><use xlink:href="#b" x="25.996" y="43.395"/><use xlink:href="#3"/><use xlink:href="#4" y="2.171"/><use xlink:href="#5" y="4.342"/><use xlink:href="#6" y="6.513"/><use xlink:href="#7" y="8.684"/><use xlink:href="#8" y="10.855"/><use xlink:href="#9" y="13.026"/><use xlink:href="#10" y="15.197"/><use xlink:href="#11" y="17.368"/><use xlink:href="#12" y="19.539"/><use xlink:href="#13" y="21.71"/><use xlink:href="#14" y="23.881"/><use xlink:href="#15" y="26.052"/><use xlink:href="#16" y="28.223"/><use xlink:href="#17" y="30.394"/><use xlink:href="#18" y="32.565"/><use xlink:href="#19" y="34.736"/><use xlink:href="#20" y="36.907"/><use xlink:href="#21" y="39.078"/><use xlink:href="#13" y="41.249"/><text y="45.09" class="f">mepcott@csci-odin:~$</text><text x="21.042" y="45.09" class="f">whoam</text></svg><svg x="6272"><use xlink:href="#a"/><use xlink:href="#b" x="26.996" y="43.395"/><use xlink:href="#3"/><use xlink:href="#4" y="2.171"/><use xlink:href="#5" y="4.342"/><use xlink:href="#6" y="6.513"/><use xlink:href="#7" y="8.684"/><use xlink:href="#8" y="10.855"/><use xlink:href="#9" y="13.026"/><use xlink:href="#10" y="15.197"/><use xlink:href="#11" y="17.368"/><use xlink:href="#12" y="19.539"/><use xlink:href="#13" y="21.71"/><use xlink:href="#14" y="23.881"/><use xlink:href="#15" y="26.052"/><use xlink:href="#16" y="28.223"/><use xlink:href="#17" y="30.394"/><use xlink:href="#18" y="32.565"/><use xlink:href="#19" y="34.736"/><use xlink:href="#20" y="36.907"/><use xlink:href="#21" y="39.078"/><use xlink:href="#13" y="41.249"/><use xlink:href="#23" y="43.42"/></svg><svg x="6400"><use xlink:href="#a"/><use xlink:href="#b" x="20.996" y="47.737"/><use xlink:href="#3"/><use xlink:href="#4" y="2.171"/><use xlink:href="#5" y="4.342"/><use xlink:href="#6" y="6.513"/><use xlink:href="#7" y="8.684"/><use xlink:href="#8" y="10.855"/><use xlink:href="#9" y="13.026"/><use xlink:href="#10" y="15.197"/><use xlink:href="#11" y="17.368"/><use xlink:href="#12" y="19.539"/><use xlink:href="#13" y="21.71"/><use xlink:href="#14" y="23.881"/><use xlink:href="#15" y="26.052"/><use xlink:href="#16" y="28.223"/><use xlink:href="#17" y="30.394"/><use xlink:href="#18" y="32.565"/><use xlink:href="#19" y="34.736"/><use xlink:href="#20" y="36.907"/><use xlink:href="#21" y="39.078"/><use xlink:href="#13" y="41.249"/><use xlink:href="#23" y="43.42"/><use xlink:href="#24" y="45.591"/><use xlink:href="#22" y="47.762"/></svg><svg x="6528"><use xlink:href="#a"/><use xlink:href="#b" x="21.996" y="47.737"/><use xlink:href="#3"/><use xlink:href="#4" y="2.171"/><use xlink:href="#5" y="4.342"/><use xlink:href="#6" y="6.513"/><use xlink:href="#7" y="8.684"/><use xlink:href="#8" y="10.855"/><use xlink:href="#9" y="13.026"/><use xlink:href="#10" y="15.197"/><use xlink:href="#11" y="17.368"/><use xlink:href="#12" y="19.539"/><use xlink:href="#13" y="21.71"/><use xlink:href="#14" y="23.881"/><use xlink:href="#15" y="26.052"/><use xlink:href="#16" y="28.223"/><use xlink:href="#17" y="30.394"/><use xlink:href="#18" y="32.565"/><use xlink:href="#19" y="34.736"/><use xlink:href="#20" y="36.907"/><use xlink:href="#21" y="39.078"/><use xlink:href="#13" y="41.249"/><use xlink:href="#23" y="43.42"/><use xlink:href="#24" y="45.591"/><text y="49.432" class="f">mepcott@csci-odin:~$</text><text x="21.042" y="49.432" class="f">e</text></svg><svg x="6656"><use xlink:href="#a"/><use xlink:href="#b" x="22.996" y="47.737"/><use xlink:href="#3"/><use xlink:href="#4" y="2.171"/><use xlink:href="#5" y="4.342"/><use xlink:href="#6" y="6.513"/><use xlink:href="#7" y="8.684"/><use xlink:href="#8" y="10.855"/><use xlink:href="#9" y="13.026"/><use xlink:href="#10" y="15.197"/><use xlink:href="#11" y="17.368"/><use xlink:href="#12" y="19.539"/><use xlink:href="#13" y="21.71"/><use xlink:href="#14" y="23.881"/><use xlink:href="#15" y="26.052"/><use xlink:href="#16" y="28.223"/><use xlink:href="#17" y="30.394"/><use xlink:href="#18" y="32.565"/><use xlink:href="#19" y="34.736"/><use xlink:href="#20" y="36.907"/><use xlink:href="#21" y="39.078"/><use xlink:href="#13" y="41.249"/><use xlink:href="#23" y="43.42"/><use xlink:href="#24" y="45.591"/><text y="49.432" class="f">mepcott@csci-odin:~$</text><text x="21.042" y="49.432" class="f">ex</text></svg><svg x="6784"><use xlink:href="#a"/><use xlink:href="#b" x="23.996" y="47.737"/><use xlink:href="#3"/><use xlink:href="#4" y="2.171"/><use xlink:href="#5" y="4.342"/><use xlink:href="#6" y="6.513"/><use xlink:href="#7" y="8.684"/><use xlink:href="#8" y="10.855"/><use xlink:href="#9" y="13.026"/><use xlink:href="#10" y="15.197"/><use xlink:href="#11" y="17.368"/><use xlink:href="#12" y="19.539"/><use xlink:href="#13" y="21.71"/><use xlink:href="#14" y="23.881"/><use xlink:href="#15" y="26.052"/><use xlink:href="#16" y="28.223"/><use xlink:href="#17" y="30.394"/><use xlink:href="#18" y="32.565"/><use xlink:href="#19" y="34.736"/><use xlink:href="#20" y="36.907"/><use xlink:href="#21" y="39.078"/><use xlink:href="#13" y="41.249"/><use xlink:href="#23" y="43.42"/><use xlink:href="#24" y="45.591"/><text y="49.432" class="f">mepcott@csci-odin:~$</text><text x="21.042" y="49.432" class="f">exi</text></svg><svg x="6912"><use xlink:href="#a"/><use xlink:href="#b" x="24.996" y="47.737"/><use xlink:href="#3"/><use xlink:href="#4" y="2.171"/><use xlink:href="#5" y="4.342"/><use xlink:href="#6" y="6.513"/><use xlink:href="#7" y="8.684"/><use xlink:href="#8" y="10.855"/><use xlink:href="#9" y="13.026"/><use xlink:href="#10" y="15.197"/><use xlink:href="#11" y="17.368"/><use xlink:href="#12" y="19.539"/><use xlink:href="#13" y="21.71"/><use xlink:href="#14" y="23.881"/><use xlink:href="#15" y="26.052"/><use xlink:href="#16" y="28.223"/><use xlink:href="#17" y="30.394"/><use xlink:href="#18" y="32.565"/><use xlink:href="#19" y="34.736"/><use xlink:href="#20" y="36.907"/><use xlink:href="#21" y="39.078"/><use xlink:href="#13" y="41.249"/><use xlink:href="#23" y="43.42"/><use xlink:href="#24" y="45.591"/><use xlink:href="#25" y="47.762"/></svg><svg x="7040"><use xlink:href="#a"/><use xlink:href="#b" x="-.004" y="52.079"/><use xlink:href="#3"/><use xlink:href="#4" y="2.171"/><use xlink:href="#5" y="4.342"/><use xlink:href="#6" y="6.513"/><use xlink:href="#7" y="8.684"/><use xlink:href="#8" y="10.855"/><use xlink:href="#9" y="13.026"/><use xlink:href="#10" y="15.197"/><use xlink:href="#11" y="17.368"/><use xlink:href="#12" y="19.539"/><use xlink:href="#13" y="21.71"/><use xlink:href="#14" y="23.881"/><use xlink:href="#15" y="26.052"/><use xlink:href="#16" y="28.223"/><use xlink:href="#17" y="30.394"/><use xlink:href="#18" y="32.565"/><use xlink:href="#19" y="34.736"/><use xlink:href="#20" y="36.907"/><use xlink:href="#21" y="39.078"/><use xlink:href="#13" y="41.249"/><use xlink:href="#23" y="43.42"/><use xlink:href="#24" y="45.591"/><use xlink:href="#25" y="47.762"/><use xlink:href="#26" y="49.933"/></svg><svg x="7168"><use xlink:href="#a"/><use xlink:href="#b" x="-.004" y="54.25"/><use xlink:href="#3"/><use xlink:href="#4" y="2.171"/><use xlink:href="#5" y="4.342"/><use xlink:href="#6" y="6.513"/><use xlink:href="#7" y="8.684"/><use xlink:href="#8" y="10.855"/><use xlink:href="#9" y="13.026"/><use xlink:href="#10" y="15.197"/><use xlink:href="#11" y="17.368"/><use xlink:href="#12" y="19.539"/><use xlink:href="#13" y="21.71"/><use xlink:href="#14" y="23.881"/><use xlink:href="#15" y="26.052"/><use xlink:href="#16" y="28.223"/><use xlink:href="#17" y="30.394"/><use xlink:href="#18" y="32.565"/><use xlink:href="#19" y="34.736"/><use xlink:href="#20" y="36.907"/><use xlink:href="#21" y="39.078"/><use xlink:href="#13" y="41.249"/><use xlink:href="#23" y="43.42"/><use xlink:href="#24" y="45.591"/><use xlink:href="#25" y="47.762"/><use xlink:href="#26" y="49.933"/><use xlink:href="#27" y="52.104"/></svg><svg x="7296"><use xlink:href="#a"/><use xlink:href="#b" x="-.004" y="54.25"/><use xlink:href="#3"/><use xlink:href="#4" y="2.171"/><use xlink:href="#5" y="4.342"/><use xlink:href="#6" y="6.513"/><use xlink:href="#7" y="8.684"/><use xlink:href="#8" y="10.855"/><use xlink:href="#9" y="13.026"/><use xlink:href="#10" y="15.197"/><use xlink:href="#11" y="17.368"/><use xlink:href="#12" y="19.539"/><use xlink:href="#13" y="21.71"/><use xlink:href="#14" y="23.881"/><use xlink:href="#15" y="26.052"/><use xlink:href="#16" y="28.223"/><use xlink:href="#17" y="30.394"/><use xlink:href="#18" y="32.565"/><use xlink:href="#19" y="34.736"/><use xlink:href="#20" y="36.907"/><use xlink:href="#21" y="39.078"/><use xlink:href="#13" y="41.249"/><use xlink:href="#23" y="43.42"/><use xlink:href="#24" y="45.591"/><use xlink:href="#25" y="47.762"/><use xlink:href="#26" y="49.933"/><use xlink:href="#27" y="52.104"/></svg><svg x="7424"><use xlink:href="#a"/><use xlink:href="#b" x="-.004" y="54.25"/><use xlink:href="#3"/><use xlink:href="#4" y="2.171"/><use xlink:href="#5" y="4.342"/><use xlink:href="#6" y="6.513"/><use xlink:href="#7" y="8.684"/><use xlink:href="#8" y="10.855"/><use xlink:href="#9" y="13.026"/><use xlink:href="#10" y="15.197"/><use xlink:href="#11" y="17.368"/><use xlink:href="#12" y="19.539"/><use xlink:href="#13" y="21.71"/><use xlink:href="#14" y="23.881"/><use xlink:href="#15" y="26.052"/><use xlink:href="#16" y="28.223"/><use xlink:href="#17" y="30.394"/><use xlink:href="#18" y="32.565"/><use xlink:href="#19" y="34.736"/><use xlink:href="#20" y="36.907"/><use xlink:href="#21" y="39.078"/><use xlink:href="#13" y="41.249"/><use xlink:href="#23" y="43.42"/><use xlink:href="#24" y="45.591"/><use xlink:href="#25" y="47.762"/><use xlink:href="#26" y="49.933"/><use xlink:href="#27" y="52.104"/></svg><svg x="7552"><use xlink:href="#a"/><use xlink:href="#b" x="-.004" y="54.25"/><use xlink:href="#3"/><use xlink:href="#4" y="2.171"/><use xlink:href="#5" y="4.342"/><use xlink:href="#6" y="6.513"/><use xlink:href="#7" y="8.684"/><use xlink:href="#8" y="10.855"/><use xlink:href="#9" y="13.026"/><use xlink:href="#10" y="15.197"/><use xlink:href="#11" y="17.368"/><use xlink:href="#12" y="19.539"/><use xlink:href="#13" y="21.71"/><use xlink:href="#14" y="23.881"/><use xlink:href="#15" y="26.052"/><use xlink:href="#16" y="28.223"/><use xlink:href="#17" y="30.394"/><use xlink:href="#18" y="32.565"/><use xlink:href="#19" y="34.736"/><use xlink:href="#20" y="36.907"/><use xlink:href="#21" y="39.078"/><use xlink:href="#13" y="41.249"/><use xlink:href="#23" y="43.42"/><use xlink:href="#24" y="45.591"/><use xlink:href="#25" y="47.762"/><use xlink:href="#26" y="49.933"/><use xlink:href="#27" y="52.104"/></svg><svg x="7680"><use xlink:href="#a"/><use xlink:href="#b" x="19.996" y="54.25"/><use xlink:href="#3"/><use xlink:href="#4" y="2.171"/><use xlink:href="#5" y="4.342"/><use xlink:href="#6" y="6.513"/><use xlink:href="#7" y="8.684"/><use xlink:href="#8" y="10.855"/><use xlink:href="#9" y="13.026"/><use xlink:href="#10" y="15.197"/><use xlink:href="#11" y="17.368"/><use xlink:href="#12" y="19.539"/><use xlink:href="#13" y="21.71"/><use xlink:href="#14" y="23.881"/><use xlink:href="#15" y="26.052"/><use xlink:href="#16" y="28.223"/><use xlink:href="#17" y="30.394"/><use xlink:href="#18" y="32.565"/><use xlink:href="#19" y="34.736"/><use xlink:href="#20" y="36.907"/><use xlink:href="#21" y="39.078"/><use xlink:href="#13" y="41.249"/><use xlink:href="#23" y="43.42"/><use xlink:href="#24" y="45.591"/><use xlink:href="#25" y="47.762"/><use xlink:href="#26" y="49.933"/><use xlink:href="#27" y="52.104"/><use xlink:href="#1" y="54.275"/></svg><svg x="7808"><use xlink:href="#a"/><use xlink:href="#b" x="19.996" y="54.25"/><use xlink:href="#3"/><use xlink:href="#4" y="2.171"/><use xlink:href="#5" y="4.342"/><use xlink:href="#6" y="6.513"/><use xlink:href="#7" y="8.684"/><use xlink:href="#8" y="10.855"/><use xlink:href="#9" y="13.026"/><use xlink:href="#10" y="15.197"/><use xlink:href="#11" y="17.368"/><use xlink:href="#12" y="19.539"/><use xlink:href="#13" y="21.71"/><use xlink:href="#14" y="23.881"/><use xlink:href="#15" y="26.052"/><use xlink:href="#16" y="28.223"/><use xlink:href="#17" y="30.394"/><use xlink:href="#18" y="32.565"/><use xlink:href="#19" y="34.736"/><use xlink:href="#20" y="36.907"/><use xlink:href="#21" y="39.078"/><use xlink:href="#13" y="41.249"/><use xlink:href="#23" y="43.42"/><use xlink:href="#24" y="45.591"/><use xlink:href="#25" y="47.762"/><use xlink:href="#26" y="49.933"/><use xlink:href="#27" y="52.104"/><use xlink:href="#1" y="54.275"/></svg><svg x="7936"><use xlink:href="#a"/><use xlink:href="#b" x="19.996" y="54.25"/><use xlink:href="#3"/><use xlink:href="#4" y="2.171"/><use xlink:href="#5" y="4.342"/><use xlink:href="#6" y="6.513"/><use xlink:href="#7" y="8.684"/><use xlink:href="#8" y="10.855"/><use xlink:href="#9" y="13.026"/><use xlink:href="#10" y="15.197"/><use xlink:href="#11" y="17.368"/><use xlink:href="#12" y="19.539"/><use xlink:href="#13" y="21.71"/><use xlink:href="#14" y="23.881"/><use xlink:href="#15" y="26.052"/><use xlink:href="#16" y="28.223"/><use xlink:href="#17" y="30.394"/><use xlink:href="#18" y="32.565"/><use xlink:href="#19" y="34.736"/><use xlink:href="#20" y="36.907"/><use xlink:href="#21" y="39.078"/><use xlink:href="#13" y="41.249"/><use xlink:href="#23" y="43.42"/><use xlink:href="#24" y="45.591"/><use xlink:href="#25" y="47.762"/><use xlink:href="#26" y="49.933"/><use xlink:href="#27" y="52.104"/><use xlink:href="#1" y="54.275"/></svg><svg x="8064"><use xlink:href="#a"/><use xlink:href="#b" x="19.996" y="54.25"/><use xlink:href="#3"/><use xlink:href="#4" y="2.171"/><use xlink:href="#5" y="4.342"/><use xlink:href="#6" y="6.513"/><use xlink:href="#7" y="8.684"/><use xlink:href="#8" y="10.855"/><use xlink:href="#9" y="13.026"/><use xlink:href="#10" y="15.197"/><use xlink:href="#11" y="17.368"/><use xlink:href="#12" y="19.539"/><use xlink:href="#13" y="21.71"/><use xlink:href="#14" y="23.881"/><use xlink:href="#15" y="26.052"/><use xlink:href="#16" y="28.223"/><use xlink:href="#17" y="30.394"/><use xlink:href="#18" y="32.565"/><use xlink:href="#19" y="34.736"/><use xlink:href="#20" y="36.907"/><use xlink:href="#21" y="39.078"/><use xlink:href="#13" y="41.249"/><use xlink:href="#23" y="43.42"/><use xlink:href="#24" y="45.591"/><use xlink:href="#25" y="47.762"/><use xlink:href="#26" y="49.933"/><use xlink:href="#27" y="52.104"/><use xlink:href="#1" y="54.275"/></svg><svg x="8192"><use xlink:href="#a"/><use xlink:href="#b" x="-.004" y="56.421"/><use xlink:href="#3"/><use xlink:href="#4" y="2.171"/><use xlink:href="#5" y="4.342"/><use xlink:href="#6" y="6.513"/><use xlink:href="#7" y="8.684"/><use xlink:href="#8" y="10.855"/><use xlink:href="#9" y="13.026"/><use xlink:href="#10" y="15.197"/><use xlink:href="#11" y="17.368"/><use xlink:href="#12" y="19.539"/><use xlink:href="#13" y="21.71"/><use xlink:href="#14" y="23.881"/><use xlink:href="#15" y="26.052"/><use xlink:href="#16" y="28.223"/><use xlink:href="#17" y="30.394"/><use xlink:href="#18" y="32.565"/><use xlink:href="#19" y="34.736"/><use xlink:href="#20" y="36.907"/><use xlink:href="#21" y="39.078"/><use xlink:href="#13" y="41.249"/><use xlink:href="#23" y="43.42"/><use xlink:href="#24" y="45.591"/><use xlink:href="#25" y="47.762"/><use xlink:href="#26" y="49.933"/><use xlink:href="#27" y="52.104"/><use xlink:href="#1" y="54.275"/></svg></svg></g></g></svg></svg>