<svg xmlns="http://www.w3.org/2000/svg" xmlns:xlink="http://www.w3.org/1999/xlink" width="1320" height="140.13"><rect width="1320" height="125.13" rx="5" ry="5" class="a"/><svg y="0%" x="0%"><circle cx="20" cy="20" r="6" fill="#ff5f58"/><circle cx="40" cy="20" r="6" fill="#ffbd2e"/><circle cx="60" cy="20" r="6" fill="#18c132"/></svg><svg height="65.13" viewBox="0 0 128 6.513" width="1280" x="15" xmlns="http://www.w3.org/2000/svg" xmlns:xlink="http://www.w3.org/1999/xlink" y="50"><style>@keyframes i{0%{transform:translateX(0)}2.1%{transform:translateX(-128px)}27.6%{transform:translateX(-256px)}29.5%{transform:translateX(-384px)}34.1%{transform:translateX(-512px)}57.9%{transform:translateX(-640px)}to{transform:translateX(-768px)}}.a{fill:#282d35}.f{fill:#b9c0cb;white-space:pre}</style><g font-family="Monaco,Consolas,Menlo,'Bitstream Vera Sans Mono','Powerline Symbols',monospace" font-size="1.67"><defs><symbol id="1"><text y="1.67" class="f">[mepcott@csci-odin</text><text x="19.038" y="1.67" class="f">~]$</text></symbol><symbol id="2"><text y="1.67" class="f">[mepcott@csci-odin</text><text x="19.038" y="1.67" class="f">~]$</text><text x="23.046" y="1.67" class="f">pwd</text></symbol><symbol id="3"><text y="1.67" class="f">/home/myid/mepcott</text></symbol><symbol id="a"><path fill="transparent" d="M0 0h128v3H0z"/></symbol><symbol id="b"><path fill="#6f7683" d="M0 0h1.102v2.171H0z"/></symbol></defs><path class="a" d="M0 0h128v6.513H0z"/><g style="animation-duration:7.962538s;animation-iteration-count:infinite;animation-name:i;animation-timing-function:steps(1,end)"><svg width="896"><svg><use xlink:href="#a"/><use xlink:href="#b" x="-.004"/></svg><svg x="128"><use xlink:href="#a"/><use xlink:href="#b" x="22.996"/><use xlink:href="#1"/></svg><svg x="256"><use xlink:href="#a"/><use xlink:href="#b" x="23.996"/><text y="1.67" class="f">[mepcott@csci-odin</text><text x="19.038" y="1.67" class="f">~]$</text><text x="23.046" y="1.67" class="f">p</text></svg><svg x="384"><use xlink:href="#a"/><use xlink:href="#b" x="24.996"/><text y="1.67" class="f">[mepcott@csci-odin</text><text x="19.038" y="1.67" class="f">~]$</text><text x="23.046" y="1.67" class="f">pw</text></svg><svg x="512"><use xlink:href="#a"/><use xlink:href="#b" x="25.996"/><use xlink:href="#2"/></svg><svg x="640"><use xlink:href="#a"/><use xlink:href="#b" x="22.996" y="4.317"/><use xlink:href="#2"/><use xlink:href="#3" y="2.171"/><use xlink:href="#1" y="4.342"/></svg><svg x="768"><use xlink:href="#a"/><use xlink:href="#b" x="-.004" y="4.317"/><use xlink:href="#3"/><text y="3.841" class="f">[mepcott@csci-odin</text><text x="19.038" y="3.841" class="f">~]$</text><text x="23.046" y="3.841" class="f">exit</text></svg></svg></g></g></svg></svg>