<svg xmlns="http://www.w3.org/2000/svg" xmlns:xlink="http://www.w3.org/1999/xlink" width="2420" height="1382.6"><rect width="2420" height="1362.6" rx="5" ry="5" class="a"/><svg y="0%" x="0%"><circle cx="20" cy="20" r="6" fill="#ff5f58"/><circle cx="40" cy="20" r="6" fill="#ffbd2e"/><circle cx="60" cy="20" r="6" fill="#18c132"/></svg><svg height="1302.6" viewBox="0 0 238 130.26" width="2380" x="15" xmlns="http://www.w3.org/2000/svg" xmlns:xlink="http://www.w3.org/1999/xlink" y="50"><style>@keyframes i{0%{transform:translateX(0)}2.1%{transform:translateX(-238px)}27.6%{transform:translateX(-476px)}29.5%{transform:translateX(-714px)}34.1%{transform:translateX(-952px)}57.9%{transform:translateX(-1190px)}to{transform:translateX(-1428px)}}.a{fill:#282d35}.f{fill:#b9c0cb;white-space:pre}</style><g font-family="Monaco,Consolas,Menlo,'Bitstream Vera Sans Mono','Powerline Symbols',monospace" font-size="1.67"><defs><symbol id="1"><text y="1.67" class="f">[mepcott@csci-odin</text><text x="19.038" y="1.67" class="f">~]$</text></symbol><symbol id="2"><text y="1.67" class="f">[mepcott@csci-odin</text><text x="19.038" y="1.67" class="f">~]$</text><text x="23.046" y="1.67" class="f">pwd</text></symbol><symbol id="3"><text y="1.67" class="f">/home/myid/mepcott</text></symbol><symbol id="a"><path fill="transparent" d="M0 0h238v60H0z"/></symbol><symbol id="b"><path fill="#6f7683" d="M0 0h1.102v2.171H0z"/></symbol></defs><path class="a" d="M0 0h238v130.26H0z"/><g style="animation-duration:7.962538s;animation-iteration-count:infinite;animation-name:i;animation-timing-function:steps(1,end)"><svg width="1666"><svg><use xlink:href="#a"/><use xlink:href="#b" x="-.004"/></svg><svg x="238"><use xlink:href="#a"/><use xlink:href="#b" x="22.996"/><use xlink:href="#1"/></svg><svg x="476"><use xlink:href="#a"/><use xlink:href="#b" x="23.996"/><text y="1.67" class="f">[mepcott@csci-odin</text><text x="19.038" y="1.67" class="f">~]$</text><text x="23.046" y="1.67" class="f">p</text></svg><svg x="714"><use xlink:href="#a"/><use xlink:href="#b" x="24.996"/><text y="1.67" class="f">[mepcott@csci-odin</text><text x="19.038" y="1.67" class="f">~]$</text><text x="23.046" y="1.67" class="f">pw</text></svg><svg x="952"><use xlink:href="#a"/><use xlink:href="#b" x="25.996"/><use xlink:href="#2"/></svg><svg x="1190"><use xlink:href="#a"/><use xlink:href="#b" x="22.996" y="4.317"/><use xlink:href="#2"/><use xlink:href="#3" y="2.171"/><use xlink:href="#1" y="4.342"/></svg><svg x="1428"><use xlink:href="#a"/><use xlink:href="#b" x="-.004" y="6.488"/><use xlink:href="#2"/><use xlink:href="#3" y="2.171"/><text y="6.012" class="f">[mepcott@csci-odin</text><text x="19.038" y="6.012" class="f">~]$</text><text x="23.046" y="6.012" class="f">exit</text></svg></svg></g></g></svg></svg>