<svg version="1.1" xmlns="http://www.w3.org/2000/svg" xmlns:xlink="http://www.w3.org/1999/xlink" width="508" height="268"><defs/><g><g transform="translate(-30,-22) scale(1,1)"><rect fill="#C0C0C0" stroke="none" x="335" y="39" width="80" height="15" opacity="0.2"/></g><g transform="translate(-30,-22) scale(1,1)"><rect fill="#C0C0C0" stroke="none" x="335" y="53" width="200" height="130" opacity="0.2"/></g><g transform="translate(-30,-22) scale(1,1)"><rect fill="#8ffff6" stroke="none" x="328" y="47" width="200" height="129"/></g><g transform="translate(-30,-22) scale(1,1)"><path fill="none" stroke="#000000" d="M 328 47 L 528 47 L 528 176 L 328 176 L 328 47 Z Z" stroke-miterlimit="10"/></g><g transform="translate(-30,-22) scale(1,1)"><rect fill="#8ffff6" stroke="none" x="328" y="32" width="80" height="15"/></g><g transform="translate(-30,-22) scale(1,1)"><path fill="none" stroke="#000000" d="M 328 32 L 408 32 L 408 47 L 328 47 L 328 32 Z Z" stroke-miterlimit="10"/></g><g transform="translate(-30,-22) scale(1,1)"><rect fill="#8ffff6" stroke="none" x="328" y="46" width="200" height="130"/></g><g transform="translate(-30,-22) scale(1,1)"><path fill="none" stroke="#000000" d="M 328 46 L 528 46 L 528 176 L 328 176 L 328 46 Z Z" stroke-miterlimit="10"/></g><g transform="translate(-30,-22) scale(1,1)"><g><path fill="none" stroke="none"/><text fill="#000000" stroke="none" font-family="Arial" font-size="13px" font-style="normal" font-weight="bold" text-decoration="none" x="390.78369140625" y="66.5">cs1302.store</text></g></g><g transform="translate(-30,-22) scale(1,1)"><rect fill="#C0C0C0" stroke="none" x="47" y="39" width="105.6" height="15" opacity="0.2"/></g><g transform="translate(-30,-22) scale(1,1)"><rect fill="#C0C0C0" stroke="none" x="47" y="53" width="264" height="234" opacity="0.2"/></g><g transform="translate(-30,-22) scale(1,1)"><rect fill="#8ffff6" stroke="none" x="40" y="47" width="264" height="233"/></g><g transform="translate(-30,-22) scale(1,1)"><path fill="none" stroke="#000000" d="M 40 47 L 304 47 L 304 280 L 40 280 L 40 47 Z Z" stroke-miterlimit="10"/></g><g transform="translate(-30,-22) scale(1,1)"><rect fill="#8ffff6" stroke="none" x="40" y="32" width="105.6" height="15"/></g><g transform="translate(-30,-22) scale(1,1)"><path fill="none" stroke="#000000" d="M 40 32 L 145.6 32 L 145.6 47 L 40 47 L 40 32 Z Z" stroke-miterlimit="10"/></g><g transform="translate(-30,-22) scale(1,1)"><rect fill="#8ffff6" stroke="none" x="40" y="46" width="264" height="234"/></g><g transform="translate(-30,-22) scale(1,1)"><path fill="none" stroke="#000000" d="M 40 46 L 304 46 L 304 280 L 40 280 L 40 46 Z Z" stroke-miterlimit="10"/></g><g transform="translate(-30,-22) scale(1,1)"><g><path fill="none" stroke="none"/><text fill="#000000" stroke="none" font-family="Arial" font-size="13px" font-style="normal" font-weight="bold" text-decoration="none" x="129.727783203125" y="66.5">cs1302.factory</text></g></g><g transform="translate(-30,-22) scale(1,1)"><rect fill="#C0C0C0" stroke="none" x="71" y="95" width="211.69970703125" height="77" opacity="0.2"/></g><g transform="translate(-30,-22) scale(1,1)"><rect fill="#fff68f" stroke="none" x="64" y="88" width="211.69970703125" height="77"/></g><g transform="translate(-30,-22) scale(1,1)"><path fill="none" stroke="#000000" d="M 64 88 L 275.69970703125 88 L 275.69970703125 165 L 64 165 L 64 88 Z Z" stroke-miterlimit="10"/></g><g transform="translate(-30,-22) scale(1,1)"><path fill="none" stroke="#000000" d="M 64 113 L 275.69970703125 113" stroke-miterlimit="10"/></g><g transform="translate(-30,-22) scale(1,1)"><g><path fill="none" stroke="none"/><text fill="#000000" stroke="none" font-family="Arial" font-size="13px" font-style="normal" font-weight="bold" text-decoration="none" x="148.178955078125" y="107.5">Factory</text></g></g><g transform="translate(-30,-22) scale(1,1)"><g><path fill="none" stroke="none"/><text fill="#000000" stroke="none" font-family="Arial" font-size="13px" font-style="normal" font-weight="normal" text-decoration="none" x="69" y="130.5">+requestChange(message: String)</text></g></g><g transform="translate(-30,-22) scale(1,1)"><g><path fill="none" stroke="none"/><text fill="#000000" stroke="none" font-family="Arial" font-size="13px" font-style="normal" font-weight="normal" text-decoration="none" x="69" y="145.5">~approveChange(message: String)</text></g></g><g transform="translate(-30,-22) scale(1,1)"><g><path fill="none" stroke="none"/><text fill="#000000" stroke="none" font-family="Arial" font-size="13px" font-style="normal" font-weight="normal" text-decoration="none" x="69" y="160.5">~denyChange(message: String)</text></g></g><g transform="translate(-30,-22) scale(1,1)"><path fill="none" stroke="#000000" d="M 168 207 L 169 166" stroke-miterlimit="10"/></g><g transform="translate(-30,-22) scale(1,1)"><path fill="none" stroke="#000000" d="M 172.96046980262577 176.26229403898023 L 169 166 L 164.54393734862802 176.05701275961445" stroke-miterlimit="10"/></g><g transform="translate(-30,-22) scale(1,1)"><rect fill="#C0C0C0" stroke="none" x="95" y="215" width="160" height="47" opacity="0.2"/></g><g transform="translate(-30,-22) scale(1,1)"><rect fill="#fff68f" stroke="none" x="88" y="208" width="160" height="47"/></g><g transform="translate(-30,-22) scale(1,1)"><path fill="none" stroke="#000000" d="M 88 208 L 248 208 L 248 255 L 88 255 L 88 208 Z Z" stroke-miterlimit="10"/></g><g transform="translate(-30,-22) scale(1,1)"><path fill="none" stroke="#000000" d="M 88 233 L 248 233" stroke-miterlimit="10"/></g><g transform="translate(-30,-22) scale(1,1)"><g><path fill="none" stroke="none"/><text fill="#000000" stroke="none" font-family="Arial" font-size="13px" font-style="normal" font-weight="bold" text-decoration="none" x="128.996826171875" y="227.5">FactoryDriver</text></g></g><g transform="translate(-30,-22) scale(1,1)"><g><path fill="none" stroke="none"/><text fill="#000000" stroke="none" font-family="Arial" font-size="13px" font-style="normal" font-weight="normal" text-decoration="none" x="93" y="250.5">+main(args: String): void</text><path fill="none" stroke="#000000" d="M 93 250.5 L 234.9716796875 250.5" stroke-miterlimit="10"/></g></g><g transform="translate(-30,-22) scale(1,1)"><rect fill="#C0C0C0" stroke="none" x="359" y="111" width="150.9716796875" height="47" opacity="0.2"/></g><g transform="translate(-30,-22) scale(1,1)"><rect fill="#fff68f" stroke="none" x="352" y="104" width="150.9716796875" height="47"/></g><g transform="translate(-30,-22) scale(1,1)"><path fill="none" stroke="#000000" d="M 352 104 L 502.9716796875 104 L 502.9716796875 151 L 352 151 L 352 104 Z Z" stroke-miterlimit="10"/></g><g transform="translate(-30,-22) scale(1,1)"><path fill="none" stroke="#000000" d="M 352 129 L 502.9716796875 129" stroke-miterlimit="10"/></g><g transform="translate(-30,-22) scale(1,1)"><g><path fill="none" stroke="none"/><text fill="#000000" stroke="none" font-family="Arial" font-size="13px" font-style="normal" font-weight="bold" text-decoration="none" x="410.153564453125" y="123.5">Driver</text></g></g><g transform="translate(-30,-22) scale(1,1)"><g><path fill="none" stroke="none"/><text fill="#000000" stroke="none" font-family="Arial" font-size="13px" font-style="normal" font-weight="normal" text-decoration="none" x="357" y="146.5">+main(args: String): void</text><path fill="none" stroke="#000000" d="M 357 146.5 L 498.9716796875 146.5" stroke-miterlimit="10"/></g></g><g transform="translate(-30,-22) scale(1,1)"><path fill="none" stroke="#000000" d="M 351 127 L 277 126" stroke-miterlimit="10"/></g><g transform="translate(-30,-22) scale(1,1)"><path fill="none" stroke="#000000" d="M 287.21862723774916 121.92818745815435 L 277 126 L 287.1048668742895 130.34645435417048" stroke-miterlimit="10"/></g></g></svg>