<svg version="1.1" xmlns="http://www.w3.org/2000/svg" xmlns:xlink="http://www.w3.org/1999/xlink" width="540" height="164"><defs/><g><g transform="translate(-54,-70) scale(1,1)"><rect fill="#C0C0C0" stroke="none" x="71" y="87" width="102.4" height="15" opacity="0.2"/></g><g transform="translate(-54,-70) scale(1,1)"><rect fill="#C0C0C0" stroke="none" x="71" y="101" width="256" height="130" opacity="0.2"/></g><g transform="translate(-54,-70) scale(1,1)"><rect fill="#8ffff6" stroke="none" x="64" y="95" width="256" height="129"/></g><g transform="translate(-54,-70) scale(1,1)"><path fill="none" stroke="#000000" d="M 64 95 L 320 95 L 320 224 L 64 224 L 64 95 Z Z" stroke-miterlimit="10"/></g><g transform="translate(-54,-70) scale(1,1)"><rect fill="#8ffff6" stroke="none" x="64" y="80" width="102.4" height="15"/></g><g transform="translate(-54,-70) scale(1,1)"><path fill="none" stroke="#000000" d="M 64 80 L 166.4 80 L 166.4 95 L 64 95 L 64 80 Z Z" stroke-miterlimit="10"/></g><g transform="translate(-54,-70) scale(1,1)"><rect fill="#8ffff6" stroke="none" x="64" y="94" width="256" height="130"/></g><g transform="translate(-54,-70) scale(1,1)"><path fill="none" stroke="#000000" d="M 64 94 L 320 94 L 320 224 L 64 224 L 64 94 Z Z" stroke-miterlimit="10"/></g><g transform="translate(-54,-70) scale(1,1)"><g><path fill="none" stroke="none"/><text fill="#000000" stroke="none" font-family="Arial" font-size="13px" font-style="normal" font-weight="bold" text-decoration="none" x="148.280517578125" y="114.5">cs1302.models</text></g></g><g transform="translate(-54,-70) scale(1,1)"><rect fill="#C0C0C0" stroke="none" x="95" y="143" width="206.666015625" height="62" opacity="0.2"/></g><g transform="translate(-54,-70) scale(1,1)"><rect fill="#fff68f" stroke="none" x="88" y="136" width="206.666015625" height="62"/></g><g transform="translate(-54,-70) scale(1,1)"><path fill="none" stroke="#000000" d="M 88 136 L 294.666015625 136 L 294.666015625 198 L 88 198 L 88 136 Z Z" stroke-miterlimit="10"/></g><g transform="translate(-54,-70) scale(1,1)"><path fill="none" stroke="#000000" d="M 88 161 L 294.666015625 161" stroke-miterlimit="10"/></g><g transform="translate(-54,-70) scale(1,1)"><g><path fill="none" stroke="none"/><text fill="#000000" stroke="none" font-family="Arial" font-size="13px" font-style="normal" font-weight="bold" text-decoration="none" x="171.829833984375" y="155.5">#Utility</text></g></g><g transform="translate(-54,-70) scale(1,1)"><g><path fill="none" stroke="none"/><text fill="#000000" stroke="none" font-family="Arial" font-size="13px" font-style="normal" font-weight="normal" text-decoration="none" x="93" y="178.5">«new»-Utility()</text></g></g><g transform="translate(-54,-70) scale(1,1)"><g><path fill="none" stroke="none"/><text fill="#000000" stroke="none" font-family="Arial" font-size="13px" font-style="normal" font-weight="normal" text-decoration="none" x="93" y="193.5">+min(a: double, b: double): double</text></g></g><g transform="translate(-54,-70) scale(1,1)"><rect fill="#C0C0C0" stroke="none" x="343" y="87" width="99.19999999999999" height="15" opacity="0.2"/></g><g transform="translate(-54,-70) scale(1,1)"><rect fill="#C0C0C0" stroke="none" x="343" y="101" width="248" height="130" opacity="0.2"/></g><g transform="translate(-54,-70) scale(1,1)"><rect fill="#8ffff6" stroke="none" x="336" y="95" width="248" height="129"/></g><g transform="translate(-54,-70) scale(1,1)"><path fill="none" stroke="#000000" d="M 336 95 L 584 95 L 584 224 L 336 224 L 336 95 Z Z" stroke-miterlimit="10"/></g><g transform="translate(-54,-70) scale(1,1)"><rect fill="#8ffff6" stroke="none" x="336" y="80" width="99.19999999999999" height="15"/></g><g transform="translate(-54,-70) scale(1,1)"><path fill="none" stroke="#000000" d="M 336 80 L 435.2 80 L 435.2 95 L 336 95 L 336 80 Z Z" stroke-miterlimit="10"/></g><g transform="translate(-54,-70) scale(1,1)"><rect fill="#8ffff6" stroke="none" x="336" y="94" width="248" height="130"/></g><g transform="translate(-54,-70) scale(1,1)"><path fill="none" stroke="#000000" d="M 336 94 L 584 94 L 584 224 L 336 224 L 336 94 Z Z" stroke-miterlimit="10"/></g><g transform="translate(-54,-70) scale(1,1)"><g><path fill="none" stroke="none"/><text fill="#000000" stroke="none" font-family="Arial" font-size="13px" font-style="normal" font-weight="bold" text-decoration="none" x="422.78369140625" y="114.5">cs1302.store</text></g></g><g transform="translate(-54,-70) scale(1,1)"><rect fill="#C0C0C0" stroke="none" x="391" y="151" width="150.9716796875" height="47" opacity="0.2"/></g><g transform="translate(-54,-70) scale(1,1)"><rect fill="#fff68f" stroke="none" x="384" y="144" width="150.9716796875" height="47"/></g><g transform="translate(-54,-70) scale(1,1)"><path fill="none" stroke="#000000" d="M 384 144 L 534.9716796875 144 L 534.9716796875 191 L 384 191 L 384 144 Z Z" stroke-miterlimit="10"/></g><g transform="translate(-54,-70) scale(1,1)"><path fill="none" stroke="#000000" d="M 384 169 L 534.9716796875 169" stroke-miterlimit="10"/></g><g transform="translate(-54,-70) scale(1,1)"><g><path fill="none" stroke="none"/><text fill="#000000" stroke="none" font-family="Arial" font-size="13px" font-style="normal" font-weight="bold" text-decoration="none" x="442.153564453125" y="163.5">Driver</text></g></g><g transform="translate(-54,-70) scale(1,1)"><g><path fill="none" stroke="none"/><text fill="#000000" stroke="none" font-family="Arial" font-size="13px" font-style="normal" font-weight="normal" text-decoration="none" x="389" y="186.5">+main(args: String): void</text><path fill="none" stroke="#000000" d="M 389 186.5 L 530.9716796875 186.5" stroke-miterlimit="10"/></g></g><g transform="translate(-54,-70) scale(1,1)"><path fill="none" stroke="#000000" d="M 383 167 L 296 167" stroke-miterlimit="10"/></g><g transform="translate(-54,-70) scale(1,1)"><path fill="none" stroke="#000000" d="M 306.16267485762415 162.790482243984 L 296 167 L 306.16267485762415 171.209517756016" stroke-miterlimit="10"/></g><g transform="translate(-54,-70) scale(1,1)"><g><path fill="none" stroke="none"/><text fill="#000000" stroke="none" font-family="Arial" font-size="13px" font-style="normal" font-weight="normal" text-decoration="none" x="343.5" y="164.5">+uses</text></g></g></g></svg>