<svg version="1.1" xmlns="http://www.w3.org/2000/svg" xmlns:xlink="http://www.w3.org/1999/xlink" width="572" height="300"><defs/><g><g transform="translate(-150,-150) scale(1,1)"><rect fill="#C0C0C0" stroke="none" x="167" y="167" width="92.80000000000001" height="15" opacity="0.2"/></g><g transform="translate(-150,-150) scale(1,1)"><rect fill="#C0C0C0" stroke="none" x="167" y="181" width="232" height="266" opacity="0.2"/></g><g transform="translate(-150,-150) scale(1,1)"><rect fill="#8ffff6" stroke="none" x="160" y="175" width="232" height="265"/></g><g transform="translate(-150,-150) scale(1,1)"><path fill="none" stroke="#000000" d="M 160 175 L 392 175 L 392 440 L 160 440 L 160 175 Z Z" stroke-miterlimit="10"/></g><g transform="translate(-150,-150) scale(1,1)"><rect fill="#8ffff6" stroke="none" x="160" y="160" width="92.80000000000001" height="15"/></g><g transform="translate(-150,-150) scale(1,1)"><path fill="none" stroke="#000000" d="M 160 160 L 252.8 160 L 252.8 175 L 160 175 L 160 160 Z Z" stroke-miterlimit="10"/></g><g transform="translate(-150,-150) scale(1,1)"><rect fill="#8ffff6" stroke="none" x="160" y="174" width="232" height="266"/></g><g transform="translate(-150,-150) scale(1,1)"><path fill="none" stroke="#000000" d="M 160 174 L 392 174 L 392 440 L 160 440 L 160 174 Z Z" stroke-miterlimit="10"/></g><g transform="translate(-150,-150) scale(1,1)"><g><path fill="none" stroke="none"/><text fill="#000000" stroke="none" font-family="Arial" font-size="13px" font-style="normal" font-weight="bold" text-decoration="none" x="238.78369140625" y="194.5">cs1302.store</text></g></g><g transform="translate(-150,-150) scale(1,1)"><rect fill="#C0C0C0" stroke="none" x="191" y="223" width="182.43701171875" height="113" opacity="0.2"/></g><g transform="translate(-150,-150) scale(1,1)"><rect fill="#fff68f" stroke="none" x="184" y="216" width="182.43701171875" height="113"/></g><g transform="translate(-150,-150) scale(1,1)"><path fill="none" stroke="#000000" d="M 184 216 L 366.43701171875 216 L 366.43701171875 329 L 184 329 L 184 216 Z Z" stroke-miterlimit="10"/></g><g transform="translate(-150,-150) scale(1,1)"><path fill="none" stroke="#000000" d="M 184 254 L 366.43701171875 254" stroke-miterlimit="10"/></g><g transform="translate(-150,-150) scale(1,1)"><path fill="none" stroke="#000000" d="M 184 277 L 366.43701171875 277" stroke-miterlimit="10"/></g><g transform="translate(-150,-150) scale(1,1)"><g><path fill="none" stroke="none"/><text fill="#000000" stroke="none" font-family="Arial" font-size="13px" font-style="normal" font-weight="normal" text-decoration="none" x="244.8671875" y="233.5">«abstract»</text></g></g><g transform="translate(-150,-150) scale(1,1)"><g><path fill="none" stroke="none"/><text fill="#000000" stroke="none" font-family="Arial" font-size="13px" font-style="italic" font-weight="bold" text-decoration="none" x="252.817626953125" y="248.5">Product</text></g></g><g transform="translate(-150,-150) scale(1,1)"><g><path fill="none" stroke="none"/><text fill="#000000" stroke="none" font-family="Arial" font-size="13px" font-style="normal" font-weight="normal" text-decoration="none" x="189" y="271.5">~price: double</text></g></g><g transform="translate(-150,-150) scale(1,1)"><g><path fill="none" stroke="none"/><text fill="#000000" stroke="none" font-family="Arial" font-size="13px" font-style="normal" font-weight="normal" text-decoration="none" x="189" y="294.5">«new»#Product(price: double)</text></g></g><g transform="translate(-150,-150) scale(1,1)"><g><path fill="none" stroke="none"/><text fill="#000000" stroke="none" font-family="Arial" font-size="13px" font-style="normal" font-weight="normal" text-decoration="none" x="189" y="309.5">+getPrice(): double</text></g></g><g transform="translate(-150,-150) scale(1,1)"><g><path fill="none" stroke="none"/><text fill="#000000" stroke="none" font-family="Arial" font-size="13px" font-style="normal" font-weight="normal" text-decoration="none" x="189" y="324.5">#setPrice(price: double): void</text></g></g><g transform="translate(-150,-150) scale(1,1)"><rect fill="#C0C0C0" stroke="none" x="431" y="167" width="115.20000000000005" height="15" opacity="0.2"/></g><g transform="translate(-150,-150) scale(1,1)"><rect fill="#C0C0C0" stroke="none" x="431" y="181" width="288" height="266" opacity="0.2"/></g><g transform="translate(-150,-150) scale(1,1)"><rect fill="#8ffff6" stroke="none" x="424" y="175" width="288" height="265"/></g><g transform="translate(-150,-150) scale(1,1)"><path fill="none" stroke="#000000" d="M 424 175 L 712 175 L 712 440 L 424 440 L 424 175 Z Z" stroke-miterlimit="10"/></g><g transform="translate(-150,-150) scale(1,1)"><rect fill="#8ffff6" stroke="none" x="424" y="160" width="115.20000000000005" height="15"/></g><g transform="translate(-150,-150) scale(1,1)"><path fill="none" stroke="#000000" d="M 424 160 L 539.2 160 L 539.2 175 L 424 175 L 424 160 Z Z" stroke-miterlimit="10"/></g><g transform="translate(-150,-150) scale(1,1)"><rect fill="#8ffff6" stroke="none" x="424" y="174" width="288" height="266"/></g><g transform="translate(-150,-150) scale(1,1)"><path fill="none" stroke="#000000" d="M 424 174 L 712 174 L 712 440 L 424 440 L 424 174 Z Z" stroke-miterlimit="10"/></g><g transform="translate(-150,-150) scale(1,1)"><g><path fill="none" stroke="none"/><text fill="#000000" stroke="none" font-family="Arial" font-size="13px" font-style="normal" font-weight="bold" text-decoration="none" x="527.88916015625" y="194.5">cs1302.books</text></g></g><g transform="translate(-150,-150) scale(1,1)"><rect fill="#C0C0C0" stroke="none" x="455" y="239" width="236.26513671875" height="85" opacity="0.2"/></g><g transform="translate(-150,-150) scale(1,1)"><rect fill="#fff68f" stroke="none" x="448" y="232" width="236.26513671875" height="85"/></g><g transform="translate(-150,-150) scale(1,1)"><path fill="none" stroke="#000000" d="M 448 232 L 684.26513671875 232 L 684.26513671875 317 L 448 317 L 448 232 Z Z" stroke-miterlimit="10"/></g><g transform="translate(-150,-150) scale(1,1)"><path fill="none" stroke="#000000" d="M 448 257 L 684.26513671875 257" stroke-miterlimit="10"/></g><g transform="translate(-150,-150) scale(1,1)"><path fill="none" stroke="#000000" d="M 448 280 L 684.26513671875 280" stroke-miterlimit="10"/></g><g transform="translate(-150,-150) scale(1,1)"><g><path fill="none" stroke="none"/><text fill="#000000" stroke="none" font-family="Arial" font-size="13px" font-style="normal" font-weight="bold" text-decoration="none" x="551.317138671875" y="251.5">Book</text></g></g><g transform="translate(-150,-150) scale(1,1)"><g><path fill="none" stroke="none"/><text fill="#000000" stroke="none" font-family="Arial" font-size="13px" font-style="normal" font-weight="normal" text-decoration="none" x="453" y="274.5">-title: String</text></g></g><g transform="translate(-150,-150) scale(1,1)"><g><path fill="none" stroke="none"/><text fill="#000000" stroke="none" font-family="Arial" font-size="13px" font-style="normal" font-weight="normal" text-decoration="none" x="453" y="297.5">«new»+Book(title: String, price: double)</text></g></g><g transform="translate(-150,-150) scale(1,1)"><g><path fill="none" stroke="none"/><text fill="#000000" stroke="none" font-family="Arial" font-size="13px" font-style="normal" font-weight="normal" text-decoration="none" x="453" y="312.5">«override»+toString(): String</text></g></g><g transform="translate(-150,-150) scale(1,1)"><path fill="none" stroke="#000000" d="M 447 273 L 367 273" stroke-miterlimit="10"/></g><g transform="translate(-150,-150) scale(1,1)"><path fill="#FFFFFF" stroke="none" d="M 387.3253497152483 264.580964487968 L 367 273 L 387.3253497152483 281.419035512032"/></g><g transform="translate(-150,-150) scale(1,1)"><path fill="none" stroke="#000000" d="M 387.3253497152483 264.580964487968 L 367 273 L 387.3253497152483 281.419035512032 L 387.3253497152483 264.580964487968" stroke-miterlimit="10"/></g><g transform="translate(-150,-150) scale(1,1)"><rect fill="#C0C0C0" stroke="none" x="207" y="375" width="158.1953125" height="47" opacity="0.2"/></g><g transform="translate(-150,-150) scale(1,1)"><rect fill="#fff68f" stroke="none" x="200" y="368" width="158.1953125" height="47"/></g><g transform="translate(-150,-150) scale(1,1)"><path fill="none" stroke="#000000" d="M 200 368 L 358.1953125 368 L 358.1953125 415 L 200 415 L 200 368 Z Z" stroke-miterlimit="10"/></g><g transform="translate(-150,-150) scale(1,1)"><path fill="none" stroke="#000000" d="M 200 393 L 358.1953125 393" stroke-miterlimit="10"/></g><g transform="translate(-150,-150) scale(1,1)"><g><path fill="none" stroke="none"/><text fill="#000000" stroke="none" font-family="Arial" font-size="13px" font-style="normal" font-weight="bold" text-decoration="none" x="246.2294921875" y="387.5">StoreDriver</text></g></g><g transform="translate(-150,-150) scale(1,1)"><g><path fill="none" stroke="none"/><text fill="#000000" stroke="none" font-family="Arial" font-size="13px" font-style="normal" font-weight="normal" text-decoration="none" x="205" y="410.5">+main(args: String[]): void</text><path fill="none" stroke="#000000" d="M 205 410.5 L 354.1953125 410.5" stroke-miterlimit="10"/></g></g><g transform="translate(-150,-150) scale(1,1)"><path fill="none" stroke="#000000" d="M 278 367 L 277 330" stroke-miterlimit="10"/></g><g transform="translate(-150,-150) scale(1,1)"><path fill="none" stroke="#000000" d="M 281.4825477815691 340.04523595471755 L 277 330 L 273.06658547114057 340.27269439553993" stroke-miterlimit="10"/></g><g transform="translate(-150,-150) scale(1,1)"><g><path fill="none" stroke="none"/><text fill="#000000" stroke="none" font-family="Arial" font-size="13px" font-style="normal" font-weight="normal" text-decoration="none" x="287.5" y="358.5">+uses</text></g></g><g transform="translate(-150,-150) scale(1,1)"><path fill="none" stroke="#000000" d="M 568 367 L 567 318" stroke-miterlimit="10"/></g><g transform="translate(-150,-150) scale(1,1)"><path fill="none" stroke="#000000" d="M 571.4159997626792 328.0746685352927 L 567 318 L 562.9987169383965 328.2464498174209" stroke-miterlimit="10"/></g><g transform="translate(-150,-150) scale(1,1)"><g><path fill="none" stroke="none"/><text fill="#000000" stroke="none" font-family="Arial" font-size="13px" font-style="normal" font-weight="normal" text-decoration="none" x="575.5" y="354.5">+uses</text></g></g><g transform="translate(-150,-150) scale(1,1)"><rect fill="#C0C0C0" stroke="none" x="487" y="375" width="176" height="47" opacity="0.2"/></g><g transform="translate(-150,-150) scale(1,1)"><rect fill="#fff68f" stroke="none" x="480" y="368" width="176" height="47"/></g><g transform="translate(-150,-150) scale(1,1)"><path fill="none" stroke="#000000" d="M 480 368 L 656 368 L 656 415 L 480 415 L 480 368 Z Z" stroke-miterlimit="10"/></g><g transform="translate(-150,-150) scale(1,1)"><path fill="none" stroke="#000000" d="M 480 393 L 656 393" stroke-miterlimit="10"/></g><g transform="translate(-150,-150) scale(1,1)"><g><path fill="none" stroke="none"/><text fill="#000000" stroke="none" font-family="Arial" font-size="13px" font-style="normal" font-weight="bold" text-decoration="none" x="535.852294921875" y="387.5">BookDriver</text></g></g><g transform="translate(-150,-150) scale(1,1)"><g><path fill="none" stroke="none"/><text fill="#000000" stroke="none" font-family="Arial" font-size="13px" font-style="normal" font-weight="normal" text-decoration="none" x="485" y="410.5">+main(args: String[]): void</text><path fill="none" stroke="#000000" d="M 485 410.5 L 634.1953125 410.5" stroke-miterlimit="10"/></g></g></g></svg>