<svg version="1.1" xmlns="http://www.w3.org/2000/svg" xmlns:xlink="http://www.w3.org/1999/xlink" width="484" height="148"><defs/><g><g transform="translate(-22,-38) scale(1,1)"><rect fill="#C0C0C0" stroke="none" x="39" y="55" width="73.6" height="15" opacity="0.2"/></g><g transform="translate(-22,-38) scale(1,1)"><rect fill="#C0C0C0" stroke="none" x="39" y="69" width="184" height="114" opacity="0.2"/></g><g transform="translate(-22,-38) scale(1,1)"><rect fill="#8ffff6" stroke="none" x="32" y="63" width="184" height="113"/></g><g transform="translate(-22,-38) scale(1,1)"><path fill="none" stroke="#000000" d="M 32 63 L 216 63 L 216 176 L 32 176 L 32 63 Z Z" stroke-miterlimit="10"/></g><g transform="translate(-22,-38) scale(1,1)"><rect fill="#8ffff6" stroke="none" x="32" y="48" width="73.6" height="15"/></g><g transform="translate(-22,-38) scale(1,1)"><path fill="none" stroke="#000000" d="M 32 48 L 105.6 48 L 105.6 63 L 32 63 L 32 48 Z Z" stroke-miterlimit="10"/></g><g transform="translate(-22,-38) scale(1,1)"><rect fill="#8ffff6" stroke="none" x="32" y="62" width="184" height="114"/></g><g transform="translate(-22,-38) scale(1,1)"><path fill="none" stroke="#000000" d="M 32 62 L 216 62 L 216 176 L 32 176 L 32 62 Z Z" stroke-miterlimit="10"/></g><g transform="translate(-22,-38) scale(1,1)"><g><path fill="none" stroke="none"/><text fill="#000000" stroke="none" font-family="Source Code Pro" font-size="13px" font-style="normal" font-weight="bold" text-decoration="none" x="73.30007934570312" y="82.5">cs1302.social</text></g></g><g transform="translate(-22,-38) scale(1,1)"><rect fill="#C0C0C0" stroke="none" x="55" y="103" width="149.3997802734375" height="62" opacity="0.2"/></g><g transform="translate(-22,-38) scale(1,1)"><rect fill="#fff68f" stroke="none" x="48" y="96" width="149.3997802734375" height="62"/></g><g transform="translate(-22,-38) scale(1,1)"><path fill="none" stroke="#000000" d="M 48 96 L 197.3997802734375 96 L 197.3997802734375 158 L 48 158 L 48 96 Z Z" stroke-miterlimit="10"/></g><g transform="translate(-22,-38) scale(1,1)"><path fill="none" stroke="#000000" d="M 48 121 L 197.3997802734375 121" stroke-miterlimit="10"/></g><g transform="translate(-22,-38) scale(1,1)"><g><path fill="none" stroke="none"/><text fill="#000000" stroke="none" font-family="Source Code Pro" font-size="13px" font-style="normal" font-weight="bold" text-decoration="none" x="99.2999267578125" y="115.5">Person</text></g></g><g transform="translate(-22,-38) scale(1,1)"><g><path fill="none" stroke="none"/><text fill="#000000" stroke="none" font-family="Source Code Pro" font-size="13px" font-style="normal" font-weight="normal" text-decoration="none" x="53" y="138.5">#getSSN(): int</text></g></g><g transform="translate(-22,-38) scale(1,1)"><g><path fill="none" stroke="none"/><text fill="#000000" stroke="none" font-family="Source Code Pro" font-size="13px" font-style="normal" font-weight="normal" text-decoration="none" x="53" y="153.5">+getName(): String</text></g></g><g transform="translate(-22,-38) scale(1,1)"><rect fill="#C0C0C0" stroke="none" x="247" y="55" width="102.39999999999998" height="15" opacity="0.2"/></g><g transform="translate(-22,-38) scale(1,1)"><rect fill="#C0C0C0" stroke="none" x="247" y="69" width="256" height="114" opacity="0.2"/></g><g transform="translate(-22,-38) scale(1,1)"><rect fill="#8ffff6" stroke="none" x="240" y="63" width="256" height="113"/></g><g transform="translate(-22,-38) scale(1,1)"><path fill="none" stroke="#000000" d="M 240 63 L 496 63 L 496 176 L 240 176 L 240 63 Z Z" stroke-miterlimit="10"/></g><g transform="translate(-22,-38) scale(1,1)"><rect fill="#8ffff6" stroke="none" x="240" y="48" width="102.39999999999998" height="15"/></g><g transform="translate(-22,-38) scale(1,1)"><path fill="none" stroke="#000000" d="M 240 48 L 342.4 48 L 342.4 63 L 240 63 L 240 48 Z Z" stroke-miterlimit="10"/></g><g transform="translate(-22,-38) scale(1,1)"><rect fill="#8ffff6" stroke="none" x="240" y="62" width="256" height="114"/></g><g transform="translate(-22,-38) scale(1,1)"><path fill="none" stroke="#000000" d="M 240 62 L 496 62 L 496 176 L 240 176 L 240 62 Z Z" stroke-miterlimit="10"/></g><g transform="translate(-22,-38) scale(1,1)"><g><path fill="none" stroke="none"/><text fill="#000000" stroke="none" font-family="Source Code Pro" font-size="13px" font-style="normal" font-weight="bold" text-decoration="none" x="301.7001037597656" y="82.5">cs1302.university</text></g></g><g transform="translate(-22,-38) scale(1,1)"><rect fill="#C0C0C0" stroke="none" x="263" y="103" width="219.59967041015625" height="64" opacity="0.2"/></g><g transform="translate(-22,-38) scale(1,1)"><rect fill="#fff68f" stroke="none" x="256" y="96" width="219.59967041015625" height="64"/></g><g transform="translate(-22,-38) scale(1,1)"><path fill="none" stroke="#000000" d="M 256 96 L 475.59967041015625 96 L 475.59967041015625 160 L 256 160 L 256 96 Z Z" stroke-miterlimit="10"/></g><g transform="translate(-22,-38) scale(1,1)"><path fill="none" stroke="#000000" d="M 256 121 L 475.59967041015625 121" stroke-miterlimit="10"/></g><g transform="translate(-22,-38) scale(1,1)"><g><path fill="none" stroke="none"/><text fill="#000000" stroke="none" font-family="Source Code Pro" font-size="13px" font-style="normal" font-weight="bold" text-decoration="none" x="338.4998779296875" y="115.5">Student</text></g></g><g transform="translate(-22,-38) scale(1,1)"><g><path fill="none" stroke="none"/><text fill="#000000" stroke="none" font-family="Source Code Pro" font-size="13px" font-style="normal" font-weight="normal" text-decoration="none" x="261" y="138.5">+printDetails(): void</text></g></g><g transform="translate(-22,-38) scale(1,1)"><g><path fill="none" stroke="none"/><text fill="#000000" stroke="none" font-family="Source Code Pro" font-size="13px" font-style="normal" font-weight="normal" text-decoration="none" x="261" y="153.5">+main(args: String[]): void</text><path fill="none" stroke="#000000" d="M 261 153.5 L 471.59967041015625 153.5" stroke-miterlimit="10"/></g></g><g transform="translate(-22,-38) scale(1,1)"><path fill="none" stroke="#000000" d="M 255 128 L 198 127" stroke-miterlimit="10"/></g><g transform="translate(-22,-38) scale(1,1)"><path fill="#FFFFFF" stroke="none" d="M 218.46990215000852 118.9387900431091 L 198 127 L 218.17454284558218 135.77427039541004"/></g><g transform="translate(-22,-38) scale(1,1)"><path fill="none" stroke="#000000" d="M 218.46990215000852 118.9387900431091 L 198 127 L 218.17454284558218 135.77427039541004 L 218.46990215000852 118.9387900431091" stroke-miterlimit="10"/></g></g></svg>