<svg version="1.1" xmlns="http://www.w3.org/2000/svg" xmlns:xlink="http://www.w3.org/1999/xlink" width="836" height="132"><defs/><g><g transform="translate(-14,-14) scale(1,1)"><rect fill="#C0C0C0" stroke="none" x="31" y="31" width="64" height="15" opacity="0.2"/></g><g transform="translate(-14,-14) scale(1,1)"><rect fill="#C0C0C0" stroke="none" x="31" y="45" width="160" height="98" opacity="0.2"/></g><g transform="translate(-14,-14) scale(1,1)"><rect fill="#8ffff6" stroke="none" x="24" y="39" width="160" height="97"/></g><g transform="translate(-14,-14) scale(1,1)"><path fill="none" stroke="#000000" d="M 24 39 L 184 39 L 184 136 L 24 136 L 24 39 Z Z" stroke-miterlimit="10"/></g><g transform="translate(-14,-14) scale(1,1)"><rect fill="#8ffff6" stroke="none" x="24" y="24" width="64" height="15"/></g><g transform="translate(-14,-14) scale(1,1)"><path fill="none" stroke="#000000" d="M 24 24 L 88 24 L 88 39 L 24 39 L 24 24 Z Z" stroke-miterlimit="10"/></g><g transform="translate(-14,-14) scale(1,1)"><rect fill="#8ffff6" stroke="none" x="24" y="38" width="160" height="98"/></g><g transform="translate(-14,-14) scale(1,1)"><path fill="none" stroke="#000000" d="M 24 38 L 184 38 L 184 136 L 24 136 L 24 38 Z Z" stroke-miterlimit="10"/></g><g transform="translate(-14,-14) scale(1,1)"><g><path fill="none" stroke="none"/><text fill="#000000" stroke="none" font-family="Source Code Pro" font-size="13px" font-style="normal" font-weight="bold" text-decoration="none" x="65.00006103515625" y="58.5">cs1302.foo</text></g></g><g transform="translate(-14,-14) scale(1,1)"><rect fill="#C0C0C0" stroke="none" x="215" y="31" width="64" height="15" opacity="0.2"/></g><g transform="translate(-14,-14) scale(1,1)"><rect fill="#C0C0C0" stroke="none" x="215" y="45" width="160" height="98" opacity="0.2"/></g><g transform="translate(-14,-14) scale(1,1)"><rect fill="#8ffff6" stroke="none" x="208" y="39" width="160" height="97"/></g><g transform="translate(-14,-14) scale(1,1)"><path fill="none" stroke="#000000" d="M 208 39 L 368 39 L 368 136 L 208 136 L 208 39 Z Z" stroke-miterlimit="10"/></g><g transform="translate(-14,-14) scale(1,1)"><rect fill="#8ffff6" stroke="none" x="208" y="24" width="64" height="15"/></g><g transform="translate(-14,-14) scale(1,1)"><path fill="none" stroke="#000000" d="M 208 24 L 272 24 L 272 39 L 208 39 L 208 24 Z Z" stroke-miterlimit="10"/></g><g transform="translate(-14,-14) scale(1,1)"><rect fill="#8ffff6" stroke="none" x="208" y="38" width="160" height="98"/></g><g transform="translate(-14,-14) scale(1,1)"><path fill="none" stroke="#000000" d="M 208 38 L 368 38 L 368 136 L 208 136 L 208 38 Z Z" stroke-miterlimit="10"/></g><g transform="translate(-14,-14) scale(1,1)"><g><path fill="none" stroke="none"/><text fill="#000000" stroke="none" font-family="Source Code Pro" font-size="13px" font-style="normal" font-weight="bold" text-decoration="none" x="249.00006103515625" y="58.5">cs1302.bar</text></g></g><g transform="translate(-14,-14) scale(1,1)"><rect fill="#C0C0C0" stroke="none" x="399" y="31" width="67.19999999999999" height="15" opacity="0.2"/></g><g transform="translate(-14,-14) scale(1,1)"><rect fill="#C0C0C0" stroke="none" x="399" y="45" width="168" height="98" opacity="0.2"/></g><g transform="translate(-14,-14) scale(1,1)"><rect fill="#8ffff6" stroke="none" x="392" y="39" width="168" height="97"/></g><g transform="translate(-14,-14) scale(1,1)"><path fill="none" stroke="#000000" d="M 392 39 L 560 39 L 560 136 L 392 136 L 392 39 Z Z" stroke-miterlimit="10"/></g><g transform="translate(-14,-14) scale(1,1)"><rect fill="#8ffff6" stroke="none" x="392" y="24" width="67.19999999999999" height="15"/></g><g transform="translate(-14,-14) scale(1,1)"><path fill="none" stroke="#000000" d="M 392 24 L 459.2 24 L 459.2 39 L 392 39 L 392 24 Z Z" stroke-miterlimit="10"/></g><g transform="translate(-14,-14) scale(1,1)"><rect fill="#8ffff6" stroke="none" x="392" y="38" width="168" height="98"/></g><g transform="translate(-14,-14) scale(1,1)"><path fill="none" stroke="#000000" d="M 392 38 L 560 38 L 560 136 L 392 136 L 392 38 Z Z" stroke-miterlimit="10"/></g><g transform="translate(-14,-14) scale(1,1)"><g><path fill="none" stroke="none"/><text fill="#000000" stroke="none" font-family="Source Code Pro" font-size="13px" font-style="normal" font-weight="bold" text-decoration="none" x="437.00006103515625" y="58.5">cs1302.baz</text></g></g><g transform="translate(-14,-14) scale(1,1)"><rect fill="#C0C0C0" stroke="none" x="47" y="79" width="125.99981689453125" height="47" opacity="0.2"/></g><g transform="translate(-14,-14) scale(1,1)"><rect fill="#fff68f" stroke="none" x="40" y="72" width="125.99981689453125" height="47"/></g><g transform="translate(-14,-14) scale(1,1)"><path fill="none" stroke="#000000" d="M 40 72 L 165.99981689453125 72 L 165.99981689453125 119 L 40 119 L 40 72 Z Z" stroke-miterlimit="10"/></g><g transform="translate(-14,-14) scale(1,1)"><path fill="none" stroke="#000000" d="M 40 97 L 165.99981689453125 97" stroke-miterlimit="10"/></g><g transform="translate(-14,-14) scale(1,1)"><g><path fill="none" stroke="none"/><text fill="#000000" stroke="none" font-family="Source Code Pro" font-size="13px" font-style="normal" font-weight="bold" text-decoration="none" x="99.09991455078125" y="91.5">C</text></g></g><g transform="translate(-14,-14) scale(1,1)"><g><path fill="none" stroke="none"/><text fill="#000000" stroke="none" font-family="Source Code Pro" font-size="13px" font-style="normal" font-weight="normal" text-decoration="none" x="45" y="114.5">#doThis(): void</text></g></g><g transform="translate(-14,-14) scale(1,1)"><rect fill="#C0C0C0" stroke="none" x="231" y="79" width="125.99981689453125" height="47" opacity="0.2"/></g><g transform="translate(-14,-14) scale(1,1)"><rect fill="#fff68f" stroke="none" x="224" y="72" width="125.99981689453125" height="47"/></g><g transform="translate(-14,-14) scale(1,1)"><path fill="none" stroke="#000000" d="M 224 72 L 349.99981689453125 72 L 349.99981689453125 119 L 224 119 L 224 72 Z Z" stroke-miterlimit="10"/></g><g transform="translate(-14,-14) scale(1,1)"><path fill="none" stroke="#000000" d="M 224 97 L 349.99981689453125 97" stroke-miterlimit="10"/></g><g transform="translate(-14,-14) scale(1,1)"><g><path fill="none" stroke="none"/><text fill="#000000" stroke="none" font-family="Source Code Pro" font-size="13px" font-style="normal" font-weight="bold" text-decoration="none" x="283.09991455078125" y="91.5">B</text></g></g><g transform="translate(-14,-14) scale(1,1)"><g><path fill="none" stroke="none"/><text fill="#000000" stroke="none" font-family="Source Code Pro" font-size="13px" font-style="normal" font-weight="normal" text-decoration="none" x="229" y="114.5">#doThat(): void</text></g></g><g transform="translate(-14,-14) scale(1,1)"><path fill="none" stroke="#000000" d="M 223 95 L 167 95" stroke-miterlimit="10"/></g><g transform="translate(-14,-14) scale(1,1)"><path fill="#FFFFFF" stroke="none" d="M 187.3253497152483 86.58096448796803 L 167 95 L 187.3253497152483 103.41903551203197"/></g><g transform="translate(-14,-14) scale(1,1)"><path fill="none" stroke="#000000" d="M 187.3253497152483 86.58096448796803 L 167 95 L 187.3253497152483 103.41903551203197 L 187.3253497152483 86.58096448796803" stroke-miterlimit="10"/></g><g transform="translate(-14,-14) scale(1,1)"><rect fill="#C0C0C0" stroke="none" x="415" y="79" width="133.7998046875" height="48" opacity="0.2"/></g><g transform="translate(-14,-14) scale(1,1)"><rect fill="#fff68f" stroke="none" x="408" y="72" width="133.7998046875" height="48"/></g><g transform="translate(-14,-14) scale(1,1)"><path fill="none" stroke="#000000" d="M 408 72 L 541.7998046875 72 L 541.7998046875 120 L 408 120 L 408 72 Z Z" stroke-miterlimit="10"/></g><g transform="translate(-14,-14) scale(1,1)"><path fill="none" stroke="#000000" d="M 408 97 L 541.7998046875 97" stroke-miterlimit="10"/></g><g transform="translate(-14,-14) scale(1,1)"><g><path fill="none" stroke="none"/><text fill="#000000" stroke="none" font-family="Source Code Pro" font-size="13px" font-style="normal" font-weight="bold" text-decoration="none" x="470.9999084472656" y="91.5">A</text></g></g><g transform="translate(-14,-14) scale(1,1)"><g><path fill="none" stroke="none"/><text fill="#000000" stroke="none" font-family="Source Code Pro" font-size="13px" font-style="normal" font-weight="normal" text-decoration="none" x="413" y="114.5">+doStuff(): void</text></g></g><g transform="translate(-14,-14) scale(1,1)"><path fill="none" stroke="#000000" d="M 407 96 L 351 95" stroke-miterlimit="10"/></g><g transform="translate(-14,-14) scale(1,1)"><path fill="#FFFFFF" stroke="none" d="M 371.4724257967757 86.94520130633222 L 351 95 L 371.1717938856236 103.78058833085348"/></g><g transform="translate(-14,-14) scale(1,1)"><path fill="none" stroke="#000000" d="M 371.4724257967757 86.94520130633222 L 351 95 L 371.1717938856236 103.78058833085348 L 371.4724257967757 86.94520130633222" stroke-miterlimit="10"/></g><g transform="translate(-14,-14) scale(1,1)"><rect fill="#C0C0C0" stroke="none" x="591" y="31" width="102.39999999999998" height="15" opacity="0.2"/></g><g transform="translate(-14,-14) scale(1,1)"><rect fill="#C0C0C0" stroke="none" x="591" y="45" width="256" height="98" opacity="0.2"/></g><g transform="translate(-14,-14) scale(1,1)"><rect fill="#8ffff6" stroke="none" x="584" y="39" width="256" height="97"/></g><g transform="translate(-14,-14) scale(1,1)"><path fill="none" stroke="#000000" d="M 584 39 L 840 39 L 840 136 L 584 136 L 584 39 Z Z" stroke-miterlimit="10"/></g><g transform="translate(-14,-14) scale(1,1)"><rect fill="#8ffff6" stroke="none" x="584" y="24" width="102.39999999999998" height="15"/></g><g transform="translate(-14,-14) scale(1,1)"><path fill="none" stroke="#000000" d="M 584 24 L 686.4 24 L 686.4 39 L 584 39 L 584 24 Z Z" stroke-miterlimit="10"/></g><g transform="translate(-14,-14) scale(1,1)"><rect fill="#8ffff6" stroke="none" x="584" y="38" width="256" height="98"/></g><g transform="translate(-14,-14) scale(1,1)"><path fill="none" stroke="#000000" d="M 584 38 L 840 38 L 840 136 L 584 136 L 584 38 Z Z" stroke-miterlimit="10"/></g><g transform="translate(-14,-14) scale(1,1)"><g><path fill="none" stroke="none"/><text fill="#000000" stroke="none" font-family="Source Code Pro" font-size="13px" font-style="normal" font-weight="bold" text-decoration="none" x="673.0000610351562" y="58.5">cs1302.buz</text></g></g><g transform="translate(-14,-14) scale(1,1)"><rect fill="#C0C0C0" stroke="none" x="607" y="79" width="224" height="47" opacity="0.2"/></g><g transform="translate(-14,-14) scale(1,1)"><rect fill="#fff68f" stroke="none" x="600" y="72" width="224" height="47"/></g><g transform="translate(-14,-14) scale(1,1)"><path fill="none" stroke="#000000" d="M 600 72 L 824 72 L 824 119 L 600 119 L 600 72 Z Z" stroke-miterlimit="10"/></g><g transform="translate(-14,-14) scale(1,1)"><path fill="none" stroke="#000000" d="M 600 97 L 824 97" stroke-miterlimit="10"/></g><g transform="translate(-14,-14) scale(1,1)"><g><path fill="none" stroke="none"/><text fill="#000000" stroke="none" font-family="Source Code Pro" font-size="13px" font-style="normal" font-weight="bold" text-decoration="none" x="688.6000366210938" y="91.5">Driver</text></g></g><g transform="translate(-14,-14) scale(1,1)"><g><path fill="none" stroke="none"/><text fill="#000000" stroke="none" font-family="Source Code Pro" font-size="13px" font-style="normal" font-weight="normal" text-decoration="none" x="605" y="114.5">+main(args: String[]): void</text><path fill="none" stroke="#000000" d="M 605 114.5 L 815.5996704101562 114.5" stroke-miterlimit="10"/></g></g><g transform="translate(-14,-14) scale(1,1)"><path fill="none" stroke="#000000" d="M 599 95 L 543 96" stroke-miterlimit="10"/></g><g transform="translate(-14,-14) scale(1,1)"><path fill="none" stroke="#000000" d="M 553.0858969428118 91.60970583457326 L 543 96 L 553.2362128983879 100.02739934683389" stroke-miterlimit="10"/></g><g transform="translate(-14,-14) scale(1,1)"><g><path fill="none" stroke="none"/><text fill="#000000" stroke="none" font-family="Source Code Pro" font-size="13px" font-style="normal" font-weight="normal" text-decoration="none" x="551.5" y="115.5">+uses</text></g></g></g></svg>