<svg version="1.1" xmlns="http://www.w3.org/2000/svg" xmlns:xlink="http://www.w3.org/1999/xlink" width="308" height="44"><defs/><g><g transform="translate(-180,-369) scale(1,1)"><rect fill="#C0C0C0" stroke="none" x="197" y="386" width="48" height="24" opacity="0.2"/></g><g transform="translate(-180,-369) scale(1,1)"><rect fill="#fff68f" stroke="none" x="190" y="379" width="48" height="24"/></g><g transform="translate(-180,-369) scale(1,1)"><path fill="none" stroke="#000000" d="M 190 379 L 238 379 L 238 403 L 190 403 L 190 379 Z Z" stroke-miterlimit="10"/></g><g transform="translate(-180,-369) scale(1,1)"><g><path fill="none" stroke="none"/><text fill="#000000" stroke="none" font-family="Arial" font-size="13px" font-style="normal" font-weight="bold" text-decoration="none" x="199.187744140625" y="398.5">Child</text></g></g><g transform="translate(-180,-369) scale(1,1)"><rect fill="#C0C0C0" stroke="none" x="429" y="386" width="56" height="24" opacity="0.2"/></g><g transform="translate(-180,-369) scale(1,1)"><rect fill="#fff68f" stroke="none" x="422" y="379" width="56" height="24"/></g><g transform="translate(-180,-369) scale(1,1)"><path fill="none" stroke="#000000" d="M 422 379 L 478 379 L 478 403 L 422 403 L 422 379 Z Z" stroke-miterlimit="10"/></g><g transform="translate(-180,-369) scale(1,1)"><g><path fill="none" stroke="none"/><text fill="#000000" stroke="none" font-family="Arial" font-size="13px" font-style="normal" font-weight="bold" text-decoration="none" x="430.84912109375" y="398.5">Parent</text></g></g><g transform="translate(-180,-369) scale(1,1)"><path fill="none" stroke="#000000" d="M 239 392 Q 243 392 258 392 Q 273 392 421 391" stroke-miterlimit="10"/></g><g transform="translate(-180,-369) scale(1,1)"><path fill="#FFFFFF" stroke="none" d="M 400.731998309814 399.55617364752595 L 421 391 L 400.6182301565938 382.7184869709443"/></g><g transform="translate(-180,-369) scale(1,1)"><path fill="none" stroke="#000000" d="M 400.731998309814 399.55617364752595 L 421 391 L 400.6182301565938 382.7184869709443 L 400.731998309814 399.55617364752595" stroke-miterlimit="10"/></g></g></svg>