<svg version="1.1" xmlns="http://www.w3.org/2000/svg" xmlns:xlink="http://www.w3.org/1999/xlink" width="310.5908203125" height="57"><defs/><g><g transform="translate(-180,-397) scale(1,1)"><rect fill="#C0C0C0" stroke="none" x="197" y="420.5" width="79.0908203125" height="24" opacity="0.2"/></g><g transform="translate(-180,-397) scale(1,1)"><rect fill="#fff68f" stroke="none" x="190" y="413.5" width="79.0908203125" height="24"/></g><g transform="translate(-180,-397) scale(1,1)"><path fill="none" stroke="#000000" d="M 190 413.5 L 269.0908203125 413.5 L 269.0908203125 437.5 L 190 437.5 L 190 413.5 Z Z" stroke-miterlimit="10"/></g><g transform="translate(-180,-397) scale(1,1)"><g><path fill="none" stroke="none"/><text fill="#000000" stroke="none" font-family="Arial" font-size="13px" font-style="normal" font-weight="bold" text-decoration="none" x="196.312255859375" y="433">SomeClass</text></g></g><g transform="translate(-180,-397) scale(1,1)"><rect fill="#C0C0C0" stroke="none" x="389" y="414" width="98.5908203125" height="37" opacity="0.2"/></g><g transform="translate(-180,-397) scale(1,1)"><rect fill="#d0ff8f" stroke="none" x="382" y="407" width="98.5908203125" height="37"/></g><g transform="translate(-180,-397) scale(1,1)"><path fill="none" stroke="#000000" d="M 382 407 L 480.5908203125 407 L 480.5908203125 444 L 382 444 L 382 407 Z Z" stroke-miterlimit="10"/></g><g transform="translate(-180,-397) scale(1,1)"><g><path fill="none" stroke="none"/><text fill="#000000" stroke="none" font-family="Arial" font-size="13px" font-style="normal" font-weight="normal" text-decoration="none" x="399.135009765625" y="424.5">«interface»</text></g></g><g transform="translate(-180,-397) scale(1,1)"><g><path fill="none" stroke="none"/><text fill="#000000" stroke="none" font-family="Arial" font-size="13px" font-style="normal" font-weight="bold" text-decoration="none" x="389.023193359375" y="439.5">SomeInterface</text></g></g><g transform="translate(-180,-397) scale(1,1)"><path fill="none" stroke="#000000" d="M 270 426 Q 273 426 381 425" stroke-miterlimit="10" stroke-dasharray="3"/></g><g transform="translate(-180,-397) scale(1,1)"><path fill="#FFFFFF" stroke="none" d="M 360.7534722053818 433.60686425254585 L 381 425 L 360.5975708232163 416.7695149786708"/></g><g transform="translate(-180,-397) scale(1,1)"><path fill="none" stroke="#000000" d="M 360.7534722053818 433.60686425254585 L 381 425 L 360.5975708232163 416.7695149786708 L 360.7534722053818 433.60686425254585" stroke-miterlimit="10"/></g></g></svg>