<svg version="1.1" xmlns="http://www.w3.org/2000/svg" xmlns:xlink="http://www.w3.org/1999/xlink" width="304.07177734375" height="44"><defs/><g><g transform="translate(-23.00634765625,-10) scale(1,1)"><rect fill="#C0C0C0" stroke="none" x="40.00634765625" y="27" width="53.078125" height="24" opacity="0.2"/></g><g transform="translate(-23.00634765625,-10) scale(1,1)"><rect fill="#fff68f" stroke="none" x="33.00634765625" y="20" width="53.078125" height="24"/></g><g transform="translate(-23.00634765625,-10) scale(1,1)"><path fill="none" stroke="#000000" d="M 33.00634765625 20 L 86.08447265625 20 L 86.08447265625 44 L 33.00634765625 44 L 33.00634765625 20 Z Z" stroke-miterlimit="10"/></g><g transform="translate(-23.00634765625,-10) scale(1,1)"><g><path fill="none" stroke="none"/><text fill="#000000" stroke="none" font-family="Arial" font-size="13px" font-style="normal" font-weight="bold" text-decoration="none" x="38.956787109375" y="39.5">ClassA</text></g></g><g transform="translate(-23.00634765625,-10) scale(1,1)"><rect fill="#C0C0C0" stroke="none" x="271" y="27" width="53.078125" height="24" opacity="0.2"/></g><g transform="translate(-23.00634765625,-10) scale(1,1)"><rect fill="#fff68f" stroke="none" x="264" y="20" width="53.078125" height="24"/></g><g transform="translate(-23.00634765625,-10) scale(1,1)"><path fill="none" stroke="#000000" d="M 264 20 L 317.078125 20 L 317.078125 44 L 264 44 L 264 20 Z Z" stroke-miterlimit="10"/></g><g transform="translate(-23.00634765625,-10) scale(1,1)"><g><path fill="none" stroke="none"/><text fill="#000000" stroke="none" font-family="Arial" font-size="13px" font-style="normal" font-weight="bold" text-decoration="none" x="269.950439453125" y="39.5">ClassB</text></g></g><g transform="translate(-23.00634765625,-10) scale(1,1)"><path fill="none" stroke="#000000" d="M 87 32 L 263 32" stroke-miterlimit="10"/></g><g transform="translate(-23.00634765625,-10) scale(1,1)"><path fill="none" stroke="#000000" d="M 252.83732514237585 36.20951775601599 L 263 32 L 252.83732514237585 27.790482243984012" stroke-miterlimit="10"/></g></g></svg>