<svg version="1.1" xmlns="http://www.w3.org/2000/svg" xmlns:xlink="http://www.w3.org/1999/xlink" width="453.869140625" height="213"><defs/><g><g transform="translate(-22,-22) scale(1,1)"><rect fill="#C0C0C0" stroke="none" x="39" y="39" width="433.869140625" height="193" opacity="0.2"/></g><g transform="translate(-22,-22) scale(1,1)"><rect fill="#fffca0" stroke="none" x="32" y="32" width="433.869140625" height="193"/></g><g transform="translate(-22,-22) scale(1,1)"><path fill="none" stroke="#000000" d="M 32 32 L 465.869140625 32 L 465.869140625 225 L 32 225 L 32 32 Z Z" stroke-miterlimit="10"/></g><g transform="translate(-22,-22) scale(1,1)"><path fill="none" stroke="#000000" d="M 32 56 L 465.869140625 56" stroke-miterlimit="10"/></g><g transform="translate(-22,-22) scale(1,1)"><path fill="none" stroke="#000000" d="M 32 78 L 465.869140625 78" stroke-miterlimit="10"/></g><g transform="translate(-22,-22) scale(1,1)"><g><path fill="none" stroke="none"/><text fill="#000000" stroke="none" font-family="Courier" font-size="12px" font-style="normal" font-weight="bold" text-decoration="none" x="209.328125" y="50.5">Pipeline&lt;T&gt;</text></g></g><g transform="translate(-22,-22) scale(1,1)"><g><path fill="none" stroke="none"/><text fill="#000000" stroke="none" font-family="Courier" font-size="12px" font-style="normal" font-weight="normal" text-decoration="none" x="37" y="72.5">-list: List&lt;T&gt;</text></g></g><g transform="translate(-22,-22) scale(1,1)"><g><path fill="none" stroke="none"/><text fill="#000000" stroke="none" font-family="Courier" font-size="12px" font-style="normal" font-weight="normal" text-decoration="none" x="37" y="94.5">«new»-Pipeline(list: List&lt;T&gt;)</text></g></g><g transform="translate(-22,-22) scale(1,1)"><g><path fill="none" stroke="none"/><text fill="#000000" stroke="none" font-family="Courier" font-size="12px" font-style="normal" font-weight="normal" text-decoration="none" x="37" y="108.5">+&lt;T&gt;from(list: List&lt;T&gt;): Pipeline&lt;T&gt;</text><path fill="none" stroke="#000000" d="M 37 108.5 L 296.2421875 108.5" stroke-miterlimit="10"/></g></g><g transform="translate(-22,-22) scale(1,1)"><g><path fill="none" stroke="none"/><text fill="#000000" stroke="none" font-family="Courier" font-size="12px" font-style="normal" font-weight="normal" text-decoration="none" x="37" y="122.5">«override»+toString(): String</text></g></g><g transform="translate(-22,-22) scale(1,1)"><g><path fill="none" stroke="none"/><text fill="#000000" stroke="none" font-family="Courier" font-size="12px" font-style="normal" font-weight="normal" text-decoration="none" x="37" y="136.5">+forEach(action: Consumer&lt;T&gt;): void</text></g></g><g transform="translate(-22,-22) scale(1,1)"><g><path fill="none" stroke="none"/><text fill="#000000" stroke="none" font-family="Courier" font-size="12px" font-style="normal" font-weight="normal" text-decoration="none" x="37" y="150.5">+toList(newList: Supplier&lt;List&lt;T&gt;&gt;): List&lt;T&gt;</text></g></g><g transform="translate(-22,-22) scale(1,1)"><g><path fill="none" stroke="none"/><text fill="#000000" stroke="none" font-family="Courier" font-size="12px" font-style="normal" font-weight="normal" text-decoration="none" x="37" y="164.5">+keep(condition: Predicate&lt;T&gt;): Pipeline&lt;T&gt;</text></g></g><g transform="translate(-22,-22) scale(1,1)"><g><path fill="none" stroke="none"/><text fill="#000000" stroke="none" font-family="Courier" font-size="12px" font-style="normal" font-weight="normal" text-decoration="none" x="37" y="178.5">+remove(condition: Predicate&lt;T&gt;): Pipeline&lt;T&gt;</text></g></g><g transform="translate(-22,-22) scale(1,1)"><g><path fill="none" stroke="none"/><text fill="#000000" stroke="none" font-family="Courier" font-size="12px" font-style="normal" font-weight="normal" text-decoration="none" x="37" y="192.5">+&lt;R&gt;convert(converter: Function&lt;T, R&gt;): Pipeline&lt;R&gt;</text></g></g><g transform="translate(-22,-22) scale(1,1)"><g><path fill="none" stroke="none"/><text fill="#000000" stroke="none" font-family="Courier" font-size="12px" font-style="normal" font-weight="normal" text-decoration="none" x="37" y="206.5">+combine(combiner: BiFunction&lt;T, T, T&gt;): T</text></g></g><g transform="translate(-22,-22) scale(1,1)"><g><path fill="none" stroke="none"/><text fill="#000000" stroke="none" font-family="Courier" font-size="12px" font-style="normal" font-weight="normal" text-decoration="none" x="37" y="220.5">+&lt;R&gt;combine(initial: R, combiner: BiFunction&lt;R, T, R&gt;): R</text></g></g></g></svg>