<?xml version="1.0" encoding="UTF-8" standalone="no"?>
<!DOCTYPE svg PUBLIC "-//W3C//DTD SVG 1.1//EN"
 "http://www.w3.org/Graphics/SVG/1.1/DTD/svg11.dtd">
<!-- Generated by graphviz version 2.49.0 (20210828.1703)
 -->
<!-- Pages: 1 -->
<svg width="350pt" height="152pt"
 viewBox="0.00 0.00 350.00 152.00" xmlns="http://www.w3.org/2000/svg" xmlns:xlink="http://www.w3.org/1999/xlink">
<g id="graph0" class="graph" transform="scale(1 1) rotate(0) translate(4 148)">
<!-- b1 -->
<g id="node1" class="node">
<title>b1</title>
<polygon fill="#cd0000" stroke="#cd0000" points="248,-144 190,-144 190,-108 248,-108 248,-144"/>
<text text-anchor="middle" x="219" y="-123.2" font-family="Roboto Medium" font-size="11.00" fill="white">feature1</text>
</g>
<!-- c5 -->
<g id="node7" class="node">
<title>c5</title>
<polygon fill="whitesmoke" stroke="lightgray" points="249,-90 189,-90 189,-54 249,-54 249,-90"/>
<text text-anchor="middle" x="219" y="-69.2" font-family="Roboto Medium" font-size="11.00">d0600e7</text>
</g>
<!-- b1&#45;&gt;c5 -->
<g id="edge6" class="edge">
<title>b1&#45;&gt;c5</title>
<path fill="none" stroke="dimgray" d="M219,-107.79C219,-105.31 219,-102.83 219,-100.34"/>
<polygon fill="dimgray" stroke="dimgray" points="222.5,-100.14 219,-90.14 215.5,-100.14 222.5,-100.14"/>
</g>
<!-- b2 -->
<g id="node2" class="node">
<title>b2</title>
<polygon fill="#cd0000" stroke="#cd0000" points="340.5,-90 286.5,-90 286.5,-54 340.5,-54 340.5,-90"/>
<text text-anchor="middle" x="313.5" y="-69.2" font-family="Roboto Medium" font-size="11.00" fill="white">main</text>
</g>
<!-- c4 -->
<g id="node6" class="node">
<title>c4</title>
<polygon fill="whitesmoke" stroke="lightgray" points="342,-36 285,-36 285,0 342,0 342,-36"/>
<text text-anchor="middle" x="313.5" y="-15.2" font-family="Roboto Medium" font-size="11.00">15061fc</text>
</g>
<!-- b2&#45;&gt;c4 -->
<g id="edge5" class="edge">
<title>b2&#45;&gt;c4</title>
<path fill="none" stroke="dimgray" d="M313.5,-53.79C313.5,-51.31 313.5,-48.83 313.5,-46.34"/>
<polygon fill="dimgray" stroke="dimgray" points="317,-46.14 313.5,-36.14 310,-46.14 317,-46.14"/>
</g>
<!-- c1 -->
<g id="node3" class="node">
<title>c1</title>
<polygon fill="whitesmoke" stroke="lightgray" points="60,-63 0,-63 0,-27 60,-27 60,-63"/>
<text text-anchor="middle" x="30" y="-42.2" font-family="Roboto Medium" font-size="11.00">6214c7d</text>
</g>
<!-- c2 -->
<g id="node4" class="node">
<title>c2</title>
<polygon fill="whitesmoke" stroke="lightgray" points="153,-63 96,-63 96,-27 153,-27 153,-63"/>
<text text-anchor="middle" x="124.5" y="-42.2" font-family="Roboto Medium" font-size="11.00">9cfe0ed</text>
</g>
<!-- c2&#45;&gt;c1 -->
<g id="edge1" class="edge">
<title>c2&#45;&gt;c1</title>
<path fill="none" stroke="dimgray" d="M96,-45C87.97,-45 79.04,-45 70.43,-45"/>
<polygon fill="dimgray" stroke="dimgray" points="70.17,-41.5 60.17,-45 70.17,-48.5 70.17,-41.5"/>
</g>
<!-- c3 -->
<g id="node5" class="node">
<title>c3</title>
<polygon fill="whitesmoke" stroke="lightgray" points="247.5,-36 190.5,-36 190.5,0 247.5,0 247.5,-36"/>
<text text-anchor="middle" x="219" y="-15.2" font-family="Roboto Medium" font-size="11.00">671f7ae</text>
</g>
<!-- c3&#45;&gt;c2 -->
<g id="edge2" class="edge">
<title>c3&#45;&gt;c2</title>
<path fill="none" stroke="dimgray" d="M190.5,-26.03C181.82,-28.56 172.07,-31.41 162.82,-34.11"/>
<polygon fill="dimgray" stroke="dimgray" points="161.68,-30.79 153.06,-36.96 163.64,-37.51 161.68,-30.79"/>
</g>
<!-- c4&#45;&gt;c3 -->
<g id="edge3" class="edge">
<title>c4&#45;&gt;c3</title>
<path fill="none" stroke="dimgray" d="M285,-18C276.41,-18 266.78,-18 257.62,-18"/>
<polygon fill="dimgray" stroke="dimgray" points="257.56,-14.5 247.56,-18 257.56,-21.5 257.56,-14.5"/>
</g>
<!-- c5&#45;&gt;c2 -->
<g id="edge4" class="edge">
<title>c5&#45;&gt;c2</title>
<path fill="none" stroke="dimgray" d="M188.99,-63.53C180.67,-61.1 171.49,-58.42 162.75,-55.87"/>
<polygon fill="dimgray" stroke="dimgray" points="163.73,-52.51 153.15,-53.07 161.77,-59.23 163.73,-52.51"/>
</g>
</g>
</svg>
