<?xml version="1.0" encoding="UTF-8" standalone="no"?>
<!DOCTYPE svg PUBLIC "-//W3C//DTD SVG 1.1//EN"
 "http://www.w3.org/Graphics/SVG/1.1/DTD/svg11.dtd">
<!-- Generated by graphviz version 2.49.0 (20210828.1703)
 -->
<!-- Pages: 1 -->
<svg width="347pt" height="98pt"
 viewBox="0.00 0.00 347.00 98.00" xmlns="http://www.w3.org/2000/svg" xmlns:xlink="http://www.w3.org/1999/xlink">
<g id="graph0" class="graph" transform="scale(1 1) rotate(0) translate(4 94)">
<!-- b1 -->
<g id="node1" class="node">
<title>b1</title>
<polygon fill="#cd0000" stroke="#cd0000" points="337.5,-90 283.5,-90 283.5,-54 337.5,-54 337.5,-90"/>
<text text-anchor="middle" x="310.5" y="-69.2" font-family="Roboto Medium" font-size="11.00" fill="white">main</text>
</g>
<!-- c4 -->
<g id="node5" class="node">
<title>c4</title>
<polygon fill="whitesmoke" stroke="lightgray" points="339,-36 282,-36 282,0 339,0 339,-36"/>
<text text-anchor="middle" x="310.5" y="-15.2" font-family="Roboto Medium" font-size="11.00">15061fc</text>
</g>
<!-- b1&#45;&gt;c4 -->
<g id="edge4" class="edge">
<title>b1&#45;&gt;c4</title>
<path fill="none" stroke="dimgray" d="M310.5,-53.79C310.5,-51.31 310.5,-48.83 310.5,-46.34"/>
<polygon fill="dimgray" stroke="dimgray" points="314,-46.14 310.5,-36.14 307,-46.14 314,-46.14"/>
</g>
<!-- c1 -->
<g id="node2" class="node">
<title>c1</title>
<polygon fill="whitesmoke" stroke="lightgray" points="60,-36 0,-36 0,0 60,0 60,-36"/>
<text text-anchor="middle" x="30" y="-15.2" font-family="Roboto Medium" font-size="11.00">6214c7d</text>
</g>
<!-- c2 -->
<g id="node3" class="node">
<title>c2</title>
<polygon fill="whitesmoke" stroke="lightgray" points="153,-36 96,-36 96,0 153,0 153,-36"/>
<text text-anchor="middle" x="124.5" y="-15.2" font-family="Roboto Medium" font-size="11.00">9cfe0ed</text>
</g>
<!-- c2&#45;&gt;c1 -->
<g id="edge1" class="edge">
<title>c2&#45;&gt;c1</title>
<path fill="none" stroke="dimgray" d="M96,-18C87.97,-18 79.04,-18 70.43,-18"/>
<polygon fill="dimgray" stroke="dimgray" points="70.17,-14.5 60.17,-18 70.17,-21.5 70.17,-14.5"/>
</g>
<!-- c3 -->
<g id="node4" class="node">
<title>c3</title>
<polygon fill="whitesmoke" stroke="lightgray" points="246,-36 189,-36 189,0 246,0 246,-36"/>
<text text-anchor="middle" x="217.5" y="-15.2" font-family="Roboto Medium" font-size="11.00">671f7ae</text>
</g>
<!-- c3&#45;&gt;c2 -->
<g id="edge2" class="edge">
<title>c3&#45;&gt;c2</title>
<path fill="none" stroke="dimgray" d="M188.7,-18C180.68,-18 171.78,-18 163.26,-18"/>
<polygon fill="dimgray" stroke="dimgray" points="163.13,-14.5 153.13,-18 163.13,-21.5 163.13,-14.5"/>
</g>
<!-- c4&#45;&gt;c3 -->
<g id="edge3" class="edge">
<title>c4&#45;&gt;c3</title>
<path fill="none" stroke="dimgray" d="M281.7,-18C273.68,-18 264.78,-18 256.26,-18"/>
<polygon fill="dimgray" stroke="dimgray" points="256.13,-14.5 246.13,-18 256.13,-21.5 256.13,-14.5"/>
</g>
</g>
</svg>
